<svg xmlns="http://www.w3.org/2000/svg" xmlns:xlink="http://www.w3.org/1999/xlink" width="1920" zoomAndPan="magnify" viewBox="0 0 1440 809.999993" height="1080" preserveAspectRatio="xMidYMid meet" version="1.0"><defs>
    <clipPath id="653245fcc6"><path d="M 677.875 360.136719 L 761.875 360.136719 L 761.875 450 L 677.875 450 Z M 677.875 360.136719 " clip-rule="nonzero"/></clipPath>
    <clipPath id="1dac8393c4">
        <path d="M 719 360.136719 L 761.875 360.136719 L 761.875 450 L 719 450 Z M 719 360.136719 " clip-rule="nonzero"/>
    </clipPath>
    <clipPath id="e77fe470a6">
        <path d="M 796.515625 222 L 836.265625 222 L 836.265625 267.945312 L 796.515625 267.945312 Z M 796.515625 222 " clip-rule="nonzero"/>
    </clipPath>
    <clipPath id="c74cc30f0d">
        <path d="M 800 211.695312 L 808 211.695312 L 808 220 L 800 220 Z M 800 211.695312 " clip-rule="nonzero"/>
    </clipPath>
    <clipPath id="01a66ed6a0">
        <path d="M 808 211.695312 L 816 211.695312 L 816 220 L 808 220 Z M 808 211.695312 " clip-rule="nonzero"/>
    </clipPath><clipPath id="9c3772a843">
        <path d="M 816 211.695312 L 826 211.695312 L 826 220 L 816 220 Z M 816 211.695312 " clip-rule="nonzero"/>
    </clipPath><clipPath id="2be0a5f1a9">
        <path d="M 826 211.695312 L 833 211.695312 L 833 220 L 826 220 Z M 826 211.695312 " clip-rule="nonzero"/>
    </clipPath>
    <clipPath id="9d88612615">
        <path d="M 523 280 L 583.714844 280 L 583.714844 335 L 523 335 Z M 523 280 " clip-rule="nonzero"/>
    </clipPath>
    <clipPath id="e2e0650c44">
        <path d="M 792.398438 546.019531 L 848.648438 546.019531 L 848.648438 602 L 792.398438 602 Z M 792.398438 546.019531 " clip-rule="nonzero"/>
    </clipPath>
    <clipPath id="1e6bda44c1">
        <path d="M 853.621094 279.445312 L 909.871094 279.445312 L 909.871094 335.695312 L 853.621094 335.695312 Z M 853.621094 279.445312 " clip-rule="nonzero"/>
    </clipPath>
    <clipPath id="ca0d7d3ad7">
        <path d="M 532.664062 474.625 L 583.664062 474.625 L 583.664062 530.875 L 532.664062 530.875 Z M 532.664062 474.625 " clip-rule="nonzero"/>
    </clipPath>
    <clipPath id="829820e5e2">
        <path d="M 890.53125 377.054688 L 945.28125 377.054688 L 945.28125 433.304688 L 890.53125 433.304688 Z M 890.53125 377.054688 " clip-rule="nonzero"/>
    </clipPath>
    <clipPath id="d9dbeff315">
        <path d="M 692.015625 574.003906 L 748.265625 574.003906 L 748.265625 630.253906 L 692.015625 630.253906 Z M 692.015625 574.003906 " clip-rule="nonzero"/>
    </clipPath><clipPath id="d1f36107b6">
        <path d="M 495.027344 377.015625 L 551.277344 377.015625 L 551.277344 433.265625 L 495.027344 433.265625 Z M 495.027344 377.015625 " clip-rule="nonzero"/>
    </clipPath>
    <clipPath id="04f5bb1e4c">
        <path d="M 634 226 L 643.132812 226 L 643.132812 254 L 634 254 Z M 634 226 " clip-rule="nonzero"/>
    </clipPath>
    <clipPath id="a25238bc72">
        <path d="M 618 250 L 642 250 L 642 267.945312 L 618 267.945312 Z M 618 250 " clip-rule="nonzero"/>
    </clipPath>
    <clipPath id="10cc4791df">
        <path d="M 593 250 L 617 250 L 617 267.945312 L 593 267.945312 Z M 593 250 " clip-rule="nonzero"/>
    </clipPath><clipPath id="9918d2a521">
        <path d="M 592.132812 226 L 601 226 L 601 254 L 592.132812 254 Z M 592.132812 226 " clip-rule="nonzero"/>
    </clipPath>
    <clipPath id="a32d4345e3">
        <path d="M 593 211.695312 L 617 211.695312 L 617 230 L 593 230 Z M 593 211.695312 " clip-rule="nonzero"/>
    </clipPath><clipPath id="25b1f3837f"><path d="M 618 211.695312 L 643 211.695312 L 643 230 L 618 230 Z M 618 211.695312 " clip-rule="nonzero"/>
    </clipPath>
    <clipPath id="1cef095e02"
    ><path d="M 703 180.027344 L 736 180.027344 L 736 225 L 703 225 Z M 703 180.027344 " clip-rule="nonzero"/>
    </clipPath>
    <clipPath id="f812a62139">
        <path d="M 712 197 L 750 197 L 750 236.277344 L 712 236.277344 Z M 712 197 " clip-rule="nonzero"/></clipPath><clipPath id="bba9c01c2e"><path d="M 592.132812 546.019531 L 647.632812 546.019531 L 647.632812 602.269531 L 592.132812 602.269531 Z M 592.132812 546.019531 " clip-rule="nonzero"/></clipPath><clipPath id="68d43bea49"><path d="M 853.621094 477 L 878 477 L 878 509 L 853.621094 509 Z M 853.621094 477 " clip-rule="nonzero"/></clipPath><clipPath id="3fb5a065d6"><path d="M 853.621094 475.023438 L 903 475.023438 L 903 492 L 853.621094 492 Z M 853.621094 475.023438 " clip-rule="nonzero"/></clipPath><clipPath id="e1e9238eb5"><path d="M 898 498 L 922.621094 498 L 922.621094 531 L 898 531 Z M 898 498 " clip-rule="nonzero"/></clipPath><clipPath id="63f8c72af1"><path d="M 914 495 L 922.621094 495 L 922.621094 501 L 914 501 Z M 914 495 " clip-rule="nonzero"/></clipPath><clipPath id="ce563b4afa"><path d="M 918 488 L 922.621094 488 L 922.621094 496 L 918 496 Z M 918 488 " clip-rule="nonzero"/></clipPath><clipPath id="79295688ce"><path d="M 914 486 L 922.621094 486 L 922.621094 492 L 914 492 Z M 914 486 " clip-rule="nonzero"/></clipPath></defs>
    <g clip-path="url(#653245fcc6)" class="angular"><path fill="#e23237" d="M 677.875 375.222656 L 719.296875 360.40625 L 761.808594 374.992188 L 754.9375 430.054688 L 719.296875 449.871094 L 684.230469 430.3125 Z M 677.875 375.222656 " fill-opacity="1" fill-rule="nonzero"/></g>
    <g clip-path="url(#1dac8393c4)"><path fill="#b52e31" d="M 761.808594 374.992188 L 719.296875 360.40625 L 719.296875 449.871094 L 754.9375 430.054688 Z M 761.808594 374.992188 " fill-opacity="1" fill-rule="nonzero"/></g><path fill="#ffffff" d="M 719.359375 370.863281 L 693.546875 428.566406 L 703.179688 428.371094 L 708.378906 415.332031 L 731.46875 415.332031 L 737.117188 428.472656 L 746.304688 428.667969 Z M 719.421875 389.386719 L 728.15625 407.71875 L 711.808594 407.71875 L 719.449219 389.386719 Z M 719.421875 389.386719 " fill-opacity="1" fill-rule="nonzero"/><g clip-path="url(#e77fe470a6)"><path fill="#e44d26" d="M 836.253906 222.75 L 832.636719 263.417969 L 816.375 267.941406 L 800.15625 263.425781 L 796.542969 222.75 L 836.257812 222.75 Z M 836.253906 222.75 " fill-opacity="1" fill-rule="nonzero"/></g><path fill="#f16529" d="M 816.398438 264.484375 L 829.542969 260.832031 L 832.632812 226.074219 L 816.398438 226.074219 Z M 816.398438 264.484375 " fill-opacity="1" fill-rule="nonzero"/><path fill="#ebebeb" d="M 809.367188 236.050781 L 816.398438 236.050781 L 816.398438 231.0625 L 803.933594 231.0625 L 804.050781 232.402344 L 805.273438 246.148438 L 816.398438 246.148438 L 816.398438 241.164062 L 809.820312 241.164062 Z M 809.367188 236.050781 " fill-opacity="1" fill-rule="nonzero"/><path fill="#ebebeb" d="M 810.488281 248.644531 L 805.496094 248.644531 L 806.191406 256.476562 L 816.375 259.316406 L 816.398438 259.308594 L 816.398438 254.117188 L 816.378906 254.125 L 810.839844 252.625 Z M 810.488281 248.644531 " fill-opacity="1" fill-rule="nonzero"/><g clip-path="url(#c74cc30f0d)"><path fill="#000000" d="M 800.238281 211.695312 L 802.765625 211.695312 L 802.765625 214.199219 L 805.078125 214.199219 L 805.078125 211.695312 L 807.601562 211.695312 L 807.601562 219.28125 L 805.078125 219.28125 L 805.078125 216.742188 L 802.765625 216.742188 L 802.765625 219.28125 L 800.238281 219.28125 Z M 800.238281 211.695312 " fill-opacity="1" fill-rule="nonzero"/></g><g clip-path="url(#01a66ed6a0)"><path fill="#000000" d="M 810.925781 214.210938 L 808.703125 214.210938 L 808.703125 211.695312 L 815.679688 211.695312 L 815.679688 214.210938 L 813.453125 214.210938 L 813.453125 219.28125 L 810.925781 219.28125 Z M 810.925781 214.210938 " fill-opacity="1" fill-rule="nonzero"/></g><g clip-path="url(#9c3772a843)"><path fill="#000000" d="M 816.785156 211.695312 L 819.417969 211.695312 L 821.039062 214.359375 L 822.65625 211.695312 L 825.292969 211.695312 L 825.292969 219.28125 L 822.777344 219.28125 L 822.777344 215.519531 L 821.039062 218.21875 L 820.996094 218.21875 L 819.257812 215.519531 L 819.257812 219.28125 L 816.785156 219.28125 Z M 816.785156 211.695312 " fill-opacity="1" fill-rule="nonzero"/></g><g clip-path="url(#2be0a5f1a9)"><path fill="#000000" d="M 826.550781 211.695312 L 829.078125 211.695312 L 829.078125 216.773438 L 832.632812 216.773438 L 832.632812 219.28125 L 826.550781 219.28125 Z M 826.550781 211.695312 " fill-opacity="1" fill-rule="nonzero"/></g><path fill="#ffffff" d="M 816.382812 246.148438 L 822.503906 246.148438 L 821.929688 252.621094 L 816.382812 254.121094 L 816.382812 259.3125 L 826.574219 256.476562 L 826.648438 255.632812 L 827.820312 242.5 L 827.941406 241.164062 L 816.382812 241.164062 Z M 816.382812 246.148438 " fill-opacity="1" fill-rule="nonzero"/><path fill="#ffffff" d="M 816.382812 236.039062 L 816.382812 236.050781 L 828.390625 236.050781 L 828.492188 234.929688 L 828.71875 232.402344 L 828.835938 231.0625 L 816.382812 231.0625 Z M 816.382812 236.039062 " fill-opacity="1" fill-rule="nonzero"/><g clip-path="url(#9d88612615)"><path fill="#00d8ff" d="M 572.871094 298.074219 C 572.246094 297.859375 571.59375 297.652344 570.921875 297.460938 C 571.03125 297.007812 571.132812 296.566406 571.226562 296.128906 C 572.699219 288.953125 571.734375 283.171875 568.4375 281.269531 C 565.273438 279.445312 560.101562 281.347656 554.878906 285.898438 C 554.375 286.332031 553.871094 286.796875 553.371094 287.28125 C 553.035156 286.960938 552.699219 286.652344 552.367188 286.355469 C 546.890625 281.492188 541.402344 279.441406 538.109375 281.347656 C 534.949219 283.179688 534.011719 288.613281 535.34375 295.414062 C 535.472656 296.070312 535.621094 296.742188 535.789062 297.421875 C 535.015625 297.644531 534.265625 297.878906 533.546875 298.128906 C 527.128906 300.367188 523.03125 303.875 523.03125 307.515625 C 523.03125 311.273438 527.429688 315.046875 534.117188 317.332031 C 534.644531 317.511719 535.191406 317.683594 535.753906 317.84375 C 535.570312 318.582031 535.414062 319.304688 535.277344 320.011719 C 534.011719 326.691406 535 331.996094 538.152344 333.816406 C 541.40625 335.695312 546.871094 333.761719 552.1875 329.113281 C 552.609375 328.746094 553.03125 328.351562 553.453125 327.945312 C 554 328.472656 554.550781 328.972656 555.089844 329.441406 C 560.242188 333.875 565.332031 335.667969 568.480469 333.84375 C 571.730469 331.960938 572.789062 326.261719 571.417969 319.328125 C 571.3125 318.796875 571.1875 318.257812 571.054688 317.707031 C 571.4375 317.59375 571.8125 317.476562 572.179688 317.355469 C 579.132812 315.050781 583.652344 311.328125 583.652344 307.515625 C 583.652344 303.863281 579.421875 300.332031 572.871094 298.074219 Z M 571.367188 314.894531 C 571.035156 315.003906 570.695312 315.109375 570.347656 315.210938 C 569.582031 312.785156 568.546875 310.199219 567.277344 307.527344 C 568.488281 304.921875 569.480469 302.371094 570.226562 299.957031 C 570.847656 300.136719 571.449219 300.324219 572.03125 300.523438 C 577.640625 302.457031 581.0625 305.316406 581.0625 307.515625 C 581.0625 309.859375 577.367188 312.90625 571.367188 314.894531 Z M 568.875 319.832031 C 569.484375 322.894531 569.570312 325.667969 569.167969 327.835938 C 568.808594 329.785156 568.078125 331.082031 567.183594 331.601562 C 565.269531 332.707031 561.1875 331.269531 556.78125 327.476562 C 556.273438 327.039062 555.765625 326.574219 555.257812 326.085938 C 556.964844 324.214844 558.671875 322.042969 560.339844 319.628906 C 563.269531 319.371094 566.035156 318.945312 568.546875 318.363281 C 568.671875 318.863281 568.78125 319.351562 568.875 319.832031 Z M 543.699219 331.410156 C 541.832031 332.070312 540.34375 332.089844 539.445312 331.570312 C 537.535156 330.464844 536.738281 326.207031 537.824219 320.492188 C 537.949219 319.839844 538.097656 319.167969 538.265625 318.480469 C 540.75 319.03125 543.5 319.425781 546.4375 319.664062 C 548.113281 322.023438 549.871094 324.195312 551.640625 326.09375 C 551.253906 326.46875 550.867188 326.824219 550.484375 327.160156 C 548.132812 329.21875 545.777344 330.675781 543.699219 331.410156 Z M 534.953125 314.878906 C 532 313.867188 529.558594 312.554688 527.882812 311.121094 C 526.378906 309.832031 525.621094 308.554688 525.621094 307.515625 C 525.621094 305.308594 528.910156 302.488281 534.402344 300.574219 C 535.066406 300.34375 535.765625 300.125 536.488281 299.917969 C 537.246094 302.386719 538.242188 304.96875 539.441406 307.578125 C 538.226562 310.226562 537.214844 312.851562 536.449219 315.351562 C 535.933594 315.199219 535.433594 315.042969 534.953125 314.878906 Z M 537.886719 294.914062 C 536.746094 289.089844 537.503906 284.695312 539.40625 283.59375 C 541.433594 282.417969 545.917969 284.09375 550.644531 288.292969 C 550.949219 288.558594 551.25 288.839844 551.558594 289.132812 C 549.792969 291.023438 548.054688 293.179688 546.390625 295.527344 C 543.539062 295.789062 540.8125 296.214844 538.300781 296.785156 C 538.144531 296.148438 538.003906 295.527344 537.886719 294.914062 Z M 564.03125 301.375 C 563.433594 300.339844 562.816406 299.328125 562.191406 298.34375 C 564.125 298.585938 565.976562 298.914062 567.71875 299.308594 C 567.195312 300.984375 566.546875 302.738281 565.777344 304.535156 C 565.230469 303.488281 564.648438 302.433594 564.03125 301.375 Z M 553.371094 290.984375 C 554.566406 292.277344 555.761719 293.722656 556.9375 295.292969 C 555.753906 295.238281 554.550781 295.207031 553.339844 295.207031 C 552.144531 295.207031 550.953125 295.234375 549.773438 295.292969 C 550.949219 293.738281 552.15625 292.292969 553.371094 290.984375 Z M 542.636719 301.394531 C 542.039062 302.433594 541.46875 303.480469 540.925781 304.53125 C 540.171875 302.742188 539.527344 300.980469 539 299.28125 C 540.730469 298.894531 542.574219 298.578125 544.496094 298.339844 C 543.859375 299.332031 543.238281 300.351562 542.636719 301.394531 Z M 544.550781 316.878906 C 542.566406 316.65625 540.695312 316.355469 538.964844 315.980469 C 539.5 314.25 540.160156 312.453125 540.929688 310.625 C 541.472656 311.675781 542.046875 312.722656 542.648438 313.765625 C 543.261719 314.828125 543.898438 315.863281 544.550781 316.878906 Z M 553.441406 324.230469 C 552.214844 322.90625 550.988281 321.4375 549.792969 319.863281 C 550.953125 319.910156 552.136719 319.933594 553.339844 319.933594 C 554.578125 319.933594 555.800781 319.902344 557 319.851562 C 555.820312 321.457031 554.628906 322.925781 553.441406 324.230469 Z M 565.800781 310.53125 C 566.613281 312.382812 567.296875 314.167969 567.839844 315.867188 C 566.082031 316.269531 564.183594 316.589844 562.183594 316.832031 C 562.8125 315.835938 563.433594 314.804688 564.046875 313.746094 C 564.664062 312.675781 565.246094 311.601562 565.800781 310.53125 Z M 561.800781 312.453125 C 560.851562 314.097656 559.878906 315.664062 558.890625 317.144531 C 557.09375 317.273438 555.234375 317.339844 553.339844 317.339844 C 551.453125 317.339844 549.617188 317.285156 547.851562 317.167969 C 546.824219 315.667969 545.832031 314.09375 544.890625 312.464844 C 543.949219 310.84375 543.085938 309.207031 542.304688 307.578125 C 543.085938 305.949219 543.949219 304.308594 544.882812 302.6875 C 545.816406 301.0625 546.804688 299.496094 547.820312 298.007812 C 549.625 297.871094 551.472656 297.800781 553.339844 297.800781 C 555.21875 297.800781 557.070312 297.871094 558.871094 298.007812 C 559.875 299.488281 560.851562 301.050781 561.792969 302.675781 C 562.742188 304.316406 563.617188 305.945312 564.40625 307.542969 C 563.617188 309.164062 562.746094 310.808594 561.800781 312.453125 Z M 567.140625 283.515625 C 569.175781 284.6875 569.960938 289.410156 568.6875 295.605469 C 568.605469 296 568.511719 296.402344 568.414062 296.808594 C 565.898438 296.230469 563.167969 295.796875 560.3125 295.527344 C 558.644531 293.15625 556.917969 290.996094 555.183594 289.128906 C 555.648438 288.679688 556.117188 288.253906 556.578125 287.851562 C 561.054688 283.953125 565.238281 282.414062 567.140625 283.515625 Z M 553.339844 302.097656 C 556.328125 302.097656 558.753906 304.523438 558.753906 307.515625 C 558.753906 310.507812 556.328125 312.933594 553.339844 312.933594 C 550.351562 312.933594 547.929688 310.507812 547.929688 307.515625 C 547.929688 304.523438 550.351562 302.097656 553.339844 302.097656 Z M 553.339844 302.097656 " fill-opacity="1" fill-rule="nonzero"/></g><g clip-path="url(#e2e0650c44)"><path fill="#f03c2e" d="M 847.011719 571.597656 L 822.839844 547.371094 C 821.449219 545.976562 819.191406 545.976562 817.796875 547.371094 L 812.777344 552.402344 L 819.144531 558.78125 C 820.625 558.28125 822.320312 558.617188 823.496094 559.796875 C 824.070312 560.371094 824.449219 561.058594 824.628906 561.847656 C 824.808594 562.640625 824.769531 563.421875 824.503906 564.191406 L 830.636719 570.339844 C 832.105469 569.828125 833.832031 570.160156 835.019531 571.347656 C 835.558594 571.882812 835.925781 572.519531 836.121094 573.253906 C 836.316406 573.984375 836.316406 574.71875 836.121094 575.453125 C 835.925781 576.1875 835.558594 576.824219 835.023438 577.359375 C 834.484375 577.898438 833.851562 578.261719 833.117188 578.460938 C 832.386719 578.65625 831.652344 578.65625 830.921875 578.460938 C 830.191406 578.261719 829.554688 577.894531 829.019531 577.359375 C 827.773438 576.109375 827.46875 574.273438 828.097656 572.734375 L 822.390625 567.015625 L 822.390625 582.109375 C 822.785156 582.308594 823.175781 582.574219 823.515625 582.910156 C 825.171875 584.570312 825.171875 587.261719 823.515625 588.925781 C 823.316406 589.125 823.101562 589.300781 822.871094 589.453125 C 822.640625 589.609375 822.394531 589.742188 822.136719 589.847656 C 821.878906 589.953125 821.617188 590.035156 821.34375 590.089844 C 821.070312 590.144531 820.792969 590.171875 820.515625 590.171875 C 820.234375 590.171875 819.960938 590.144531 819.6875 590.089844 C 819.414062 590.035156 819.148438 589.953125 818.890625 589.847656 C 818.632812 589.742188 818.390625 589.609375 818.15625 589.453125 C 817.925781 589.300781 817.710938 589.125 817.515625 588.925781 C 815.859375 587.261719 815.859375 584.570312 817.515625 582.910156 C 817.917969 582.511719 818.378906 582.199219 818.90625 581.984375 L 818.90625 566.753906 C 818.414062 566.542969 817.925781 566.238281 817.515625 565.839844 C 817.21875 565.539062 816.96875 565.207031 816.773438 564.832031 C 816.574219 564.460938 816.433594 564.066406 816.351562 563.652344 C 816.269531 563.242188 816.25 562.824219 816.292969 562.402344 C 816.335938 561.984375 816.441406 561.582031 816.601562 561.191406 L 810.324219 554.898438 L 793.742188 571.480469 C 793.40625 571.816406 793.152344 572.203125 792.96875 572.640625 C 792.789062 573.078125 792.699219 573.535156 792.699219 574.007812 C 792.699219 574.484375 792.789062 574.9375 792.96875 575.375 C 793.152344 575.8125 793.40625 576.199219 793.742188 576.535156 L 817.914062 600.761719 C 819.304688 602.15625 821.5625 602.15625 822.957031 600.761719 L 847.011719 576.648438 C 847.34375 576.3125 847.601562 575.925781 847.78125 575.488281 C 847.960938 575.050781 848.050781 574.597656 848.050781 574.121094 C 848.050781 573.648438 847.960938 573.195312 847.78125 572.757812 C 847.601562 572.316406 847.34375 571.929688 847.011719 571.597656 " fill-opacity="1" fill-rule="nonzero"/></g><g clip-path="url(#1e6bda44c1)"><path fill="#e4ba42" d="M 909.871094 307.570312 C 909.871094 311.234375 909.167969 314.734375 907.894531 317.945312 C 907.210938 319.664062 906.367188 321.296875 905.375 322.828125 C 904.136719 324.738281 902.675781 326.488281 901.027344 328.042969 C 900.0625 328.953125 899.035156 329.792969 897.949219 330.5625 C 893.367188 333.796875 887.777344 335.695312 881.746094 335.695312 C 875.710938 335.695312 870.121094 333.796875 865.539062 330.5625 C 864.179688 329.601562 862.910156 328.527344 861.746094 327.347656 C 856.722656 322.265625 853.621094 315.28125 853.621094 307.570312 C 853.621094 299.863281 856.722656 292.875 861.746094 287.796875 C 862.980469 286.546875 864.332031 285.414062 865.78125 284.414062 C 870.316406 281.28125 875.816406 279.445312 881.746094 279.445312 C 887.671875 279.445312 893.171875 281.28125 897.707031 284.414062 C 898.816406 285.175781 899.863281 286.019531 900.847656 286.933594 C 902.570312 288.523438 904.09375 290.332031 905.375 292.3125 C 906.367188 293.84375 907.210938 295.476562 907.894531 297.195312 C 909.167969 300.40625 909.871094 303.90625 909.871094 307.570312 Z M 909.871094 307.570312 " fill-opacity="1" fill-rule="nonzero"/></g><path fill="#f2f2f2" d="M 896.582031 305.039062 C 895.796875 302.769531 892.589844 302.769531 891.960938 304.648438 C 891.335938 306.527344 893.449219 307.625 896.738281 308.71875 C 900.027344 309.816406 902.0625 312.710938 901.671875 315.296875 C 901.277344 317.878906 900.183594 321.246094 893.683594 321.246094 C 889.625 321.246094 887.367188 318.707031 886.246094 316.804688 L 889.925781 314.589844 C 889.925781 314.589844 891.179688 317.253906 893.527344 317.253906 C 895.875 317.253906 896.816406 316.46875 896.816406 314.667969 C 896.816406 312.476562 889.222656 311.695312 888.046875 307.9375 C 886.875 304.179688 888.441406 298.855469 893.917969 299.246094 C 897.34375 299.492188 899.269531 301.175781 900.234375 302.402344 Z M 896.582031 305.039062 " fill-opacity="1" fill-rule="nonzero"/><path fill="#f2f2f2" d="M 879.515625 299.640625 L 879.515625 314.667969 C 879.515625 316.46875 877.949219 317.410156 876.382812 317.097656 C 874.820312 316.785156 874.113281 314.90625 874.113281 314.90625 L 870.511719 317.332031 C 870.511719 317.332031 871.296875 320.933594 876.226562 321.246094 C 881.160156 321.558594 883.976562 318.585938 883.976562 316.078125 L 883.976562 299.640625 Z M 879.515625 299.640625 " fill-opacity="1" fill-rule="nonzero"/><path fill="#f2f2f2" d="M 861.746094 284.414062 L 861.746094 327.347656 C 862.910156 328.527344 864.179688 329.601562 865.539062 330.5625 L 897.949219 330.5625 C 899.035156 329.792969 900.0625 328.953125 901.027344 328.042969 L 864.265625 328.042969 L 864.265625 286.933594 L 905.375 286.933594 L 905.375 322.828125 C 906.367188 321.296875 907.210938 319.664062 907.894531 317.945312 L 907.894531 284.414062 Z M 861.746094 284.414062 " fill-opacity="1" fill-rule="nonzero"/><path fill="#3f4a43" d="M 867.734375 316.703125 C 867.734375 319.167969 865.734375 321.167969 863.269531 321.167969 C 860.808594 321.167969 858.808594 319.167969 858.808594 316.703125 C 858.808594 314.242188 860.808594 312.242188 863.269531 312.242188 C 865.734375 312.242188 867.734375 314.242188 867.734375 316.703125 Z M 867.734375 316.703125 " fill-opacity="1" fill-rule="nonzero"/><g clip-path="url(#ca0d7d3ad7)"><path fill="#8cc84b" d="M 555.8125 475.375 C 557.210938 474.582031 558.996094 474.578125 560.363281 475.375 L 581.273438 487.171875 C 582.582031 487.910156 583.457031 489.367188 583.445312 490.878906 L 583.445312 514.535156 C 583.457031 516.105469 582.492188 517.597656 581.113281 518.320312 L 560.3125 530.0625 C 559.589844 530.464844 558.8125 530.652344 557.988281 530.628906 C 557.160156 530.605469 556.394531 530.375 555.695312 529.9375 L 549.453125 526.324219 C 549.027344 526.070312 548.546875 525.871094 548.246094 525.457031 C 548.511719 525.101562 548.984375 525.054688 549.371094 524.898438 C 550.238281 524.621094 551.035156 524.195312 551.832031 523.75 C 552.035156 523.609375 552.28125 523.660156 552.472656 523.785156 L 557.796875 526.867188 C 558.175781 527.085938 558.5625 526.796875 558.886719 526.613281 L 579.3125 515.078125 C 579.5625 514.953125 579.703125 514.6875 579.683594 514.410156 L 579.683594 490.984375 C 579.710938 490.667969 579.53125 490.378906 579.246094 490.253906 L 558.496094 478.558594 C 558.226562 478.371094 557.953125 478.371094 557.683594 478.558594 L 536.964844 490.273438 C 536.683594 490.402344 536.492188 490.6875 536.527344 491.003906 L 536.527344 514.429688 C 536.503906 514.707031 536.648438 514.96875 536.902344 515.089844 L 542.441406 518.214844 C 543.480469 518.777344 544.757812 519.09375 545.902344 518.679688 C 546.414062 518.488281 546.828125 518.164062 547.136719 517.710938 C 547.449219 517.261719 547.601562 516.761719 547.601562 516.210938 L 547.605469 492.921875 C 547.582031 492.578125 547.90625 492.292969 548.242188 492.328125 L 550.902344 492.328125 C 551.253906 492.316406 551.527344 492.691406 551.480469 493.035156 L 551.476562 516.472656 C 551.476562 518.554688 550.625 520.816406 548.699219 521.839844 C 546.328125 523.066406 543.398438 522.808594 541.054688 521.628906 L 535.101562 518.335938 C 533.699219 517.632812 532.761719 516.121094 532.769531 514.550781 L 532.769531 490.894531 C 532.777344 490.109375 532.980469 489.382812 533.382812 488.710938 C 533.785156 488.039062 534.328125 487.515625 535.015625 487.140625 Z M 561.839844 491.773438 C 564.863281 491.597656 568.101562 491.65625 570.824219 493.148438 C 572.929688 494.292969 574.097656 496.6875 574.136719 499.03125 C 574.074219 499.347656 573.746094 499.523438 573.445312 499.5 C 572.570312 499.5 571.691406 499.511719 570.8125 499.496094 C 570.4375 499.507812 570.222656 499.167969 570.175781 498.835938 C 569.925781 497.714844 569.3125 496.605469 568.257812 496.066406 C 566.640625 495.253906 564.765625 495.292969 563 495.3125 C 561.710938 495.382812 560.328125 495.492188 559.234375 496.25 C 558.394531 496.824219 558.144531 498 558.441406 498.914062 C 558.722656 499.585938 559.5 499.800781 560.128906 500.003906 C 563.777344 500.957031 567.636719 500.878906 571.214844 502.117188 C 572.691406 502.628906 574.140625 503.625 574.648438 505.175781 C 575.308594 507.253906 575.019531 509.738281 573.546875 511.40625 C 572.347656 512.78125 570.605469 513.507812 568.863281 513.933594 C 566.546875 514.449219 564.144531 514.460938 561.792969 514.230469 C 559.582031 513.980469 557.28125 513.398438 555.574219 511.890625 C 554.113281 510.621094 553.402344 508.644531 553.472656 506.738281 C 553.488281 506.414062 553.808594 506.191406 554.121094 506.21875 L 556.746094 506.21875 C 557.097656 506.191406 557.359375 506.5 557.375 506.832031 C 557.539062 507.882812 557.941406 509.019531 558.871094 509.632812 C 560.667969 510.792969 562.921875 510.714844 564.976562 510.746094 C 566.679688 510.671875 568.59375 510.648438 569.984375 509.519531 C 570.71875 508.878906 570.933594 507.804688 570.738281 506.878906 C 570.523438 506.097656 569.6875 505.734375 568.984375 505.476562 C 565.386719 504.335938 561.484375 504.75 557.921875 503.460938 C 556.472656 502.949219 555.074219 501.980469 554.519531 500.496094 C 553.746094 498.390625 554.101562 495.785156 555.734375 494.175781 C 557.308594 492.570312 559.621094 491.953125 561.808594 491.730469 Z M 561.839844 491.773438 " fill-opacity="1" fill-rule="nonzero"/></g><g clip-path="url(#829820e5e2)"><path fill="#000000" d="M 917.980469 433.222656 C 917.652344 433.222656 917.332031 433.175781 917.023438 433.070312 L 898.824219 427.007812 C 898.277344 426.824219 897.816406 426.511719 897.449219 426.070312 C 897.078125 425.625 896.855469 425.117188 896.777344 424.546875 L 890.710938 380.589844 C 890.679688 380.375 890.675781 380.160156 890.691406 379.945312 C 890.707031 379.726562 890.746094 379.515625 890.808594 379.308594 C 890.867188 379.101562 890.953125 378.902344 891.058594 378.710938 C 891.160156 378.519531 891.285156 378.34375 891.425781 378.179688 C 891.570312 378.019531 891.726562 377.871094 891.902344 377.742188 C 892.074219 377.613281 892.261719 377.503906 892.457031 377.414062 C 892.65625 377.324219 892.859375 377.253906 893.070312 377.207031 C 893.285156 377.164062 893.5 377.140625 893.714844 377.140625 L 942.246094 377.140625 C 942.464844 377.140625 942.679688 377.164062 942.890625 377.207031 C 943.101562 377.253906 943.304688 377.324219 943.503906 377.414062 C 943.699219 377.5 943.886719 377.613281 944.058594 377.742188 C 944.234375 377.871094 944.390625 378.015625 944.53125 378.179688 C 944.675781 378.34375 944.800781 378.519531 944.902344 378.710938 C 945.007812 378.898438 945.089844 379.097656 945.152344 379.304688 C 945.214844 379.511719 945.253906 379.722656 945.269531 379.941406 C 945.289062 380.15625 945.28125 380.371094 945.25 380.585938 L 939.183594 424.542969 C 939.105469 425.113281 938.882812 425.621094 938.515625 426.066406 C 938.144531 426.511719 937.6875 426.824219 937.140625 427.007812 L 918.941406 433.070312 C 918.628906 433.175781 918.308594 433.222656 917.980469 433.222656 Z M 902.53125 421.855469 L 917.980469 426.996094 L 933.433594 421.84375 L 938.765625 383.203125 L 897.203125 383.203125 Z M 902.53125 421.855469 " fill-opacity="1" fill-rule="nonzero"/></g><path fill="#000000" d="M 917.980469 420.339844 C 917.683594 420.339844 917.394531 420.296875 917.109375 420.210938 L 909.527344 417.9375 C 908.988281 417.777344 908.53125 417.488281 908.15625 417.074219 C 907.777344 416.660156 907.535156 416.179688 907.421875 415.628906 L 907.121094 414.113281 C 907.042969 413.730469 907.042969 413.347656 907.113281 412.964844 C 907.183594 412.582031 907.324219 412.226562 907.53125 411.898438 C 907.742188 411.570312 908.003906 411.289062 908.320312 411.0625 C 908.636719 410.835938 908.984375 410.671875 909.363281 410.578125 C 909.738281 410.484375 910.121094 410.464844 910.507812 410.515625 C 910.894531 410.570312 911.257812 410.695312 911.597656 410.886719 C 911.933594 411.078125 912.226562 411.328125 912.46875 411.632812 C 912.710938 411.9375 912.886719 412.277344 913 412.648438 L 917.980469 414.140625 L 922.835938 412.6875 L 923.582031 407.453125 L 914.949219 407.453125 C 914.316406 407.457031 913.738281 407.277344 913.21875 406.921875 C 912.699219 406.5625 912.328125 406.089844 912.101562 405.5 C 911.878906 404.910156 911.84375 404.308594 911.992188 403.695312 C 912.144531 403.082031 912.457031 402.566406 912.933594 402.148438 L 920.621094 395.328125 L 907.363281 395.328125 C 906.960938 395.328125 906.574219 395.253906 906.203125 395.097656 C 905.832031 394.945312 905.503906 394.726562 905.21875 394.441406 C 904.933594 394.15625 904.714844 393.828125 904.5625 393.457031 C 904.410156 393.085938 904.332031 392.699219 904.332031 392.296875 C 904.332031 391.894531 904.410156 391.507812 904.5625 391.136719 C 904.714844 390.765625 904.933594 390.4375 905.21875 390.152344 C 905.503906 389.871094 905.832031 389.652344 906.203125 389.496094 C 906.574219 389.34375 906.960938 389.265625 907.363281 389.265625 L 928.597656 389.265625 C 929.230469 389.265625 929.804688 389.441406 930.324219 389.800781 C 930.847656 390.15625 931.21875 390.632812 931.441406 391.222656 C 931.667969 391.8125 931.703125 392.414062 931.550781 393.027344 C 931.398438 393.636719 931.085938 394.152344 930.613281 394.570312 L 922.925781 401.390625 L 927.082031 401.390625 C 927.296875 401.390625 927.511719 401.414062 927.726562 401.460938 C 927.9375 401.507812 928.144531 401.574219 928.339844 401.664062 C 928.539062 401.753906 928.722656 401.867188 928.898438 401.996094 C 929.070312 402.125 929.230469 402.273438 929.371094 402.4375 C 929.515625 402.601562 929.636719 402.777344 929.742188 402.96875 C 929.847656 403.160156 929.929688 403.359375 929.992188 403.566406 C 930.050781 403.777344 930.089844 403.988281 930.105469 404.203125 C 930.121094 404.421875 930.113281 404.636719 930.082031 404.851562 L 928.566406 415.460938 C 928.484375 416.046875 928.25 416.5625 927.863281 417.011719 C 927.476562 417.460938 927.003906 417.769531 926.4375 417.9375 L 918.851562 420.210938 C 918.570312 420.296875 918.277344 420.339844 917.980469 420.339844 Z M 917.980469 420.339844 " fill-opacity="1" fill-rule="nonzero"/><g clip-path="url(#d9dbeff315)"><path fill="#563d7c" d="M 692.015625 623 C 692.015625 627.007812 695.261719 630.253906 699.269531 630.253906 L 741.011719 630.253906 C 745.019531 630.253906 748.265625 627.007812 748.265625 623 L 748.265625 581.257812 C 748.265625 577.25 745.019531 574.003906 741.011719 574.003906 L 699.269531 574.003906 C 695.261719 574.003906 692.015625 577.25 692.015625 581.257812 Z M 692.015625 623 " fill-opacity="1" fill-rule="nonzero"/></g><path fill="#ffffff" d="M 715.34375 598.886719 L 715.34375 590.917969 L 722.355469 590.917969 C 723.023438 590.917969 723.664062 590.976562 724.285156 591.085938 C 724.90625 591.199219 725.453125 591.394531 725.929688 591.683594 C 726.40625 591.96875 726.789062 592.367188 727.074219 592.875 C 727.363281 593.382812 727.503906 594.035156 727.503906 594.832031 C 727.503906 596.261719 727.074219 597.292969 726.214844 597.933594 C 725.359375 598.566406 724.261719 598.886719 722.925781 598.886719 Z M 707.851562 585.101562 L 707.851562 619.15625 L 724.359375 619.15625 C 725.882812 619.15625 727.371094 618.964844 728.816406 618.585938 C 730.265625 618.203125 731.550781 617.613281 732.679688 616.820312 C 733.808594 616.023438 734.707031 615 735.375 613.742188 C 736.042969 612.488281 736.375 611 736.375 609.28125 C 736.375 607.152344 735.859375 605.332031 734.828125 603.824219 C 733.792969 602.3125 732.226562 601.253906 730.128906 600.648438 C 731.65625 599.917969 732.808594 598.980469 733.585938 597.835938 C 734.367188 596.691406 734.753906 595.261719 734.753906 593.542969 C 734.753906 591.953125 734.492188 590.617188 733.96875 589.535156 C 733.445312 588.453125 732.707031 587.589844 731.75 586.9375 C 730.796875 586.285156 729.652344 585.816406 728.316406 585.53125 C 726.980469 585.242188 725.503906 585.101562 723.882812 585.101562 Z M 715.34375 613.339844 L 715.34375 603.988281 L 723.5 603.988281 C 725.121094 603.988281 726.421875 604.363281 727.410156 605.109375 C 728.394531 605.859375 728.886719 607.105469 728.886719 608.855469 C 728.886719 609.746094 728.738281 610.476562 728.4375 611.050781 C 728.132812 611.621094 727.726562 612.074219 727.21875 612.40625 C 726.710938 612.742188 726.121094 612.980469 725.453125 613.125 C 724.785156 613.265625 724.085938 613.339844 723.355469 613.339844 Z M 715.34375 613.339844 " fill-opacity="1" fill-rule="nonzero"/><g clip-path="url(#d1f36107b6)"><path fill="#007acc" d="M 495.027344 433.265625 L 551.277344 433.265625 L 551.277344 377.015625 L 495.027344 377.015625 Z M 495.027344 433.265625 " fill-opacity="1" fill-rule="nonzero"/></g><path fill="#ffffff" d="M 507.464844 405.324219 L 507.449219 407.628906 L 514.769531 407.628906 L 514.769531 428.433594 L 519.949219 428.433594 L 519.949219 407.628906 L 527.269531 407.628906 L 527.269531 405.371094 C 527.269531 404.121094 527.242188 403.074219 527.207031 403.050781 C 527.179688 403.015625 522.722656 402.996094 517.320312 403.003906 L 507.492188 403.03125 Z M 507.464844 405.324219 " fill-opacity="1" fill-rule="nonzero"/><path fill="#ffffff" d="M 540.417969 402.96875 C 541.847656 403.324219 542.9375 403.960938 543.933594 404.992188 C 544.453125 405.546875 545.222656 406.554688 545.28125 406.796875 C 545.300781 406.871094 542.855469 408.511719 541.371094 409.433594 C 541.316406 409.46875 541.105469 409.234375 540.863281 408.878906 C 540.140625 407.824219 539.378906 407.371094 538.21875 407.289062 C 536.515625 407.171875 535.417969 408.066406 535.425781 409.558594 C 535.425781 409.996094 535.488281 410.253906 535.667969 410.609375 C 536.042969 411.386719 536.738281 411.851562 538.925781 412.796875 C 542.953125 414.53125 544.675781 415.671875 545.75 417.296875 C 546.945312 419.113281 547.210938 422.003906 546.398438 424.152344 C 545.507812 426.496094 543.292969 428.082031 540.175781 428.609375 C 539.210938 428.78125 536.925781 428.753906 535.890625 428.566406 C 533.628906 428.164062 531.488281 427.046875 530.167969 425.585938 C 529.648438 425.011719 528.640625 423.519531 528.703125 423.414062 C 528.730469 423.378906 528.960938 423.234375 529.21875 423.085938 C 529.472656 422.941406 530.417969 422.394531 531.308594 421.878906 L 532.925781 420.941406 L 533.265625 421.441406 C 533.738281 422.164062 534.773438 423.15625 535.398438 423.484375 C 537.195312 424.429688 539.65625 424.296875 540.871094 423.210938 C 541.390625 422.734375 541.605469 422.246094 541.605469 421.523438 C 541.605469 420.871094 541.523438 420.582031 541.183594 420.09375 C 540.746094 419.46875 539.855469 418.941406 537.320312 417.84375 C 534.417969 416.59375 533.167969 415.816406 532.023438 414.582031 C 531.363281 413.867188 530.738281 412.726562 530.480469 411.769531 C 530.265625 410.976562 530.210938 408.988281 530.378906 408.183594 C 530.980469 405.378906 533.097656 403.421875 536.148438 402.84375 C 537.140625 402.65625 539.445312 402.726562 540.417969 402.96875 Z M 540.417969 402.96875 " fill-opacity="1" fill-rule="nonzero"/><path fill="#1b75bb" d="M 618.636719 255.617188 L 632.71875 247.910156 L 632.71875 232.644531 L 618.636719 240.738281 Z M 618.636719 255.617188 " fill-opacity="1" fill-rule="nonzero"/><g clip-path="url(#04f5bb1e4c)"><path fill="#8ad0f3" d="M 643.109375 226.671875 L 634.726562 231.484375 L 634.726562 248.816406 L 643.109375 253.640625 Z M 643.109375 226.671875 " fill-opacity="1" fill-rule="nonzero"/></g><path fill="#1b75bb" d="M 631.773438 230.878906 L 617.636719 223.140625 L 603.5 230.878906 L 617.636719 239 Z M 631.773438 230.878906 " fill-opacity="1" fill-rule="nonzero"/><g clip-path="url(#a25238bc72)"><path fill="#8ad0f3" d="M 632.910156 250.085938 L 618.636719 257.898438 L 618.636719 267.945312 L 641.542969 255.050781 Z M 632.910156 250.085938 " fill-opacity="1" fill-rule="nonzero"/></g><g clip-path="url(#10cc4791df)"><path fill="#8ad0f3" d="M 616.628906 257.898438 L 602.359375 250.085938 L 593.722656 255.050781 L 616.628906 267.945312 Z M 616.628906 257.898438 " fill-opacity="1" fill-rule="nonzero"/></g><g clip-path="url(#9918d2a521)"><path fill="#8ad0f3" d="M 592.15625 253.640625 L 600.539062 248.816406 L 600.539062 231.484375 L 592.15625 226.671875 Z M 592.15625 253.640625 " fill-opacity="1" fill-rule="nonzero"/></g><g clip-path="url(#a32d4345e3)"><path fill="#8ad0f3" d="M 601.464844 229.710938 L 616.628906 221.40625 L 616.628906 211.695312 L 593.136719 224.921875 Z M 601.464844 229.710938 " fill-opacity="1" fill-rule="nonzero"/></g><path fill="#1b75bb" d="M 616.628906 240.738281 L 602.550781 232.644531 L 602.550781 247.910156 L 616.628906 255.617188 Z M 616.628906 240.738281 " fill-opacity="1" fill-rule="nonzero"/><g clip-path="url(#25b1f3837f)"><path fill="#8ad0f3" d="M 618.636719 221.40625 L 633.800781 229.710938 L 642.128906 224.921875 L 618.636719 211.695312 Z M 618.636719 221.40625 " fill-opacity="1" fill-rule="nonzero"/></g><g clip-path="url(#1cef095e02)"><path fill="#6c4eb0" d="M 711.40625 188.039062 C 713.570312 185.28125 717.652344 183.921875 720.433594 183.851562 C 728.234375 183.699219 731.488281 193.589844 731.738281 197.519531 L 735.351562 198.621094 C 734.519531 186.570312 727.152344 180.25 720.105469 180.25 C 713.5 180.246094 707.398438 185.136719 704.9375 192.300781 C 701.582031 201.855469 703.785156 211.039062 707.902344 218.390625 C 707.542969 218.867188 707.324219 219.710938 707.398438 220.515625 C 707.46875 222.722656 709.308594 224.558594 711.515625 224.558594 L 711.660156 224.558594 C 713.972656 224.488281 715.742188 222.539062 715.632812 220.222656 C 715.632812 218.019531 713.753906 216.1875 711.550781 216.1875 L 711.40625 216.1875 C 711.261719 216.1875 711.046875 216.1875 710.863281 216.257812 C 707.867188 211.113281 706.601562 205.597656 707.074219 199.652344 C 707.359375 195.167969 708.804688 191.273438 711.40625 188.039062 Z M 711.40625 188.039062 " fill-opacity="1" fill-rule="nonzero"/></g><path fill="#6c4eb0" d="M 694 229.746094 C 696.417969 233.417969 701.367188 235.769531 706.785156 235.769531 C 708.230469 235.769531 709.75 235.660156 711.230469 235.292969 C 720.621094 233.457031 727.738281 227.722656 731.820312 219.273438 L 731.851562 219.199219 C 733.945312 219.015625 735.570312 217.140625 735.464844 214.898438 C 735.355469 212.65625 733.550781 210.855469 731.347656 210.855469 L 731.203125 210.855469 C 728.929688 210.933594 727.15625 212.878906 727.230469 215.195312 C 727.300781 216.371094 727.773438 217.328125 728.417969 218.023438 C 725.894531 223.019531 722.101562 226.691406 716.355469 229.78125 C 712.492188 231.835938 708.410156 232.613281 704.4375 232.0625 C 701.117188 231.585938 698.515625 230.074219 696.925781 227.652344 C 694.542969 223.976562 694.328125 220.011719 696.3125 216.042969 C 697.761719 213.175781 699.925781 211.082031 701.371094 210.050781 C 701.007812 209.097656 700.574219 207.480469 700.359375 206.269531 C 689.664062 214.058594 690.75 224.710938 694 229.746094 Z M 694 229.746094 " fill-opacity="1" fill-rule="nonzero"/><g clip-path="url(#f812a62139)"><path fill="#6c4eb0" d="M 748.320312 228.125 C 750.484375 223.714844 750.304688 216.292969 744.777344 209.9375 L 744.746094 210.011719 C 739.148438 203.324219 730.914062 199.648438 721.519531 199.648438 L 720.289062 199.648438 C 719.679688 198.289062 718.269531 197.441406 716.679688 197.441406 L 716.570312 197.441406 C 714.296875 197.441406 712.527344 199.429688 712.601562 201.742188 C 712.671875 203.945312 714.515625 205.785156 716.71875 205.785156 L 716.894531 205.785156 C 718.523438 205.710938 719.929688 204.679688 720.507812 203.214844 L 721.84375 203.214844 C 727.410156 203.214844 732.679688 204.867188 737.488281 208.097656 C 741.167969 210.5625 743.808594 213.792969 745.289062 217.652344 C 746.585938 220.8125 746.515625 223.898438 745.179688 226.472656 C 743.121094 230.511719 739.652344 232.644531 735.066406 232.644531 C 732.179688 232.644531 729.363281 231.726562 727.914062 231.066406 C 727.050781 231.796875 725.605469 233.007812 724.554688 233.746094 C 727.730469 235.210938 730.949219 236.058594 734.054688 236.058594 C 741.097656 236.058594 746.332031 232.023438 748.320312 228.125 Z M 748.320312 228.125 " fill-opacity="1" fill-rule="nonzero"/></g><g clip-path="url(#bba9c01c2e)"><path fill="#000000" d="M 631.925781 602.269531 C 631.558594 602.269531 631.203125 602.199219 630.863281 602.058594 C 630.523438 601.917969 630.222656 601.714844 629.964844 601.453125 C 629.703125 601.195312 629.503906 600.890625 629.363281 600.550781 C 629.222656 600.210938 629.148438 599.855469 629.148438 599.484375 L 629.148438 592.246094 C 629.238281 591.402344 629.152344 590.578125 628.890625 589.773438 C 628.628906 588.96875 628.214844 588.253906 627.652344 587.621094 C 627.300781 587.238281 627.074219 586.792969 626.972656 586.28125 C 626.867188 585.769531 626.90625 585.269531 627.085938 584.78125 C 627.265625 584.289062 627.554688 583.882812 627.960938 583.558594 C 628.367188 583.234375 628.828125 583.039062 629.34375 582.972656 C 636.113281 582.164062 642.359375 579.992188 642.359375 568.214844 C 642.359375 565.964844 641.742188 563.902344 640.5 562.03125 C 639.9375 561.1875 639.558594 560.269531 639.363281 559.277344 C 639.167969 558.285156 639.164062 557.289062 639.363281 556.296875 C 639.613281 554.988281 639.613281 553.679688 639.363281 552.367188 C 637.269531 553.078125 635.339844 554.089844 633.5625 555.40625 C 632.851562 555.910156 632.074219 556.050781 631.230469 555.820312 C 628.726562 555.113281 626.175781 554.757812 623.574219 554.757812 C 620.972656 554.757812 618.417969 555.113281 615.914062 555.820312 C 615.070312 556.050781 614.296875 555.910156 613.582031 555.40625 C 611.796875 554.074219 609.84375 553.0625 607.730469 552.367188 C 607.460938 553.679688 607.460938 554.988281 607.730469 556.296875 C 607.910156 557.300781 607.898438 558.304688 607.691406 559.308594 C 607.484375 560.308594 607.101562 561.234375 606.535156 562.085938 C 605.300781 563.972656 604.679688 566.042969 604.675781 568.296875 C 604.675781 579.128906 609.894531 582.027344 617.71875 583.027344 C 618.238281 583.09375 618.707031 583.292969 619.117188 583.621094 C 619.527344 583.953125 619.820312 584.367188 619.992188 584.867188 C 620.15625 585.347656 620.1875 585.839844 620.082031 586.339844 C 619.980469 586.835938 619.753906 587.273438 619.410156 587.652344 C 618.863281 588.234375 618.460938 588.90625 618.195312 589.664062 C 617.929688 590.417969 617.824219 591.195312 617.882812 591.996094 L 617.882812 599.484375 C 617.882812 599.855469 617.8125 600.210938 617.671875 600.550781 C 617.53125 600.890625 617.332031 601.195312 617.070312 601.453125 C 616.8125 601.714844 616.511719 601.917969 616.171875 602.058594 C 615.832031 602.199219 615.476562 602.269531 615.109375 602.269531 C 614.742188 602.269531 614.386719 602.199219 614.046875 602.058594 C 613.707031 601.917969 613.40625 601.714844 613.148438 601.453125 C 612.886719 601.195312 612.6875 600.890625 612.546875 600.550781 C 612.40625 600.210938 612.335938 599.855469 612.335938 599.484375 L 612.335938 597.898438 C 610.972656 598.054688 609.609375 598.042969 608.25 597.863281 C 606.890625 597.683594 605.570312 597.339844 604.296875 596.832031 C 603.019531 596.324219 601.824219 595.667969 600.710938 594.863281 C 599.597656 594.058594 598.597656 593.128906 597.710938 592.078125 C 596.792969 591.058594 595.71875 590.238281 594.492188 589.628906 C 594.136719 589.535156 593.808594 589.378906 593.515625 589.15625 C 593.21875 588.933594 592.980469 588.664062 592.792969 588.34375 C 592.605469 588.027344 592.484375 587.683594 592.433594 587.316406 C 592.382812 586.949219 592.402344 586.589844 592.492188 586.230469 C 592.585938 585.871094 592.742188 585.546875 592.964844 585.25 C 593.1875 584.953125 593.457031 584.710938 593.773438 584.523438 C 594.089844 584.335938 594.433594 584.214844 594.796875 584.164062 C 595.160156 584.113281 595.523438 584.132812 595.878906 584.226562 C 598.046875 585.019531 599.898438 586.28125 601.429688 588.011719 C 604.203125 590.796875 606.980469 593.246094 612.25 592.246094 C 612.15625 590.734375 612.371094 589.265625 612.890625 587.84375 C 607.171875 586.398438 599.015625 582.277344 599.015625 568.351562 C 599.011719 566.703125 599.246094 565.089844 599.71875 563.511719 C 600.191406 561.929688 600.882812 560.453125 601.789062 559.082031 C 602.140625 558.554688 602.261719 557.976562 602.152344 557.355469 C 601.578125 554.285156 601.882812 551.304688 603.066406 548.414062 C 603.402344 547.613281 603.984375 547.082031 604.816406 546.828125 C 605.757812 546.550781 609.144531 545.992188 615.554688 550.167969 C 620.816406 548.898438 626.078125 548.898438 631.34375 550.167969 C 637.753906 545.992188 641.136719 546.519531 642.054688 546.828125 C 642.882812 547.082031 643.464844 547.613281 643.800781 548.414062 C 644.988281 551.3125 645.292969 554.300781 644.71875 557.382812 C 644.597656 557.953125 644.699219 558.484375 645.023438 558.96875 C 645.933594 560.347656 646.625 561.828125 647.097656 563.414062 C 647.570312 564.996094 647.804688 566.617188 647.796875 568.269531 C 647.796875 582.386719 639.695312 586.480469 633.921875 587.761719 C 634.4375 589.269531 634.640625 590.820312 634.535156 592.414062 L 634.535156 599.484375 C 634.535156 599.839844 634.46875 600.183594 634.339844 600.515625 C 634.210938 600.84375 634.023438 601.140625 633.78125 601.398438 C 633.539062 601.65625 633.257812 601.863281 632.9375 602.011719 C 632.617188 602.164062 632.277344 602.25 631.925781 602.269531 Z M 631.925781 602.269531 " fill-opacity="1" fill-rule="nonzero"/></g><path fill="#007acc" d="M 857.722656 484.429688 L 857.722656 508.078125 L 861.789062 505.789062 L 861.789062 486.71875 Z M 857.722656 484.429688 " fill-opacity="1" fill-rule="nonzero"/><g clip-path="url(#68d43bea49)"><path fill="#007acc" d="M 853.652344 505.789062 L 853.652344 477.308594 L 877.8125 491.042969 L 877.8125 495.875 L 857.722656 484.429688 L 857.722656 508.078125 Z M 853.652344 505.789062 " fill-opacity="1" fill-rule="nonzero"/></g><path fill="#007acc" d="M 902.476562 477.308594 L 902.476562 505.789062 L 886.203125 514.945312 L 882.136719 512.402344 L 898.410156 503.246094 L 898.410156 484.175781 L 877.8125 495.871094 L 877.8125 491.042969 Z M 902.476562 477.308594 " fill-opacity="1" fill-rule="nonzero"/><g clip-path="url(#3fb5a065d6)"><path fill="#007acc" d="M 898.410156 475.019531 L 878.066406 486.464844 L 857.722656 475.019531 L 853.652344 477.308594 L 877.8125 491.042969 L 902.476562 477.308594 Z M 898.410156 475.019531 " fill-opacity="1" fill-rule="nonzero"/></g><path fill="#007acc" d="M 894.339844 486.464844 L 894.339844 500.960938 L 898.410156 503.25 L 898.410156 484.175781 Z M 894.339844 486.464844 " fill-opacity="1" fill-rule="nonzero"/><path fill="#007acc" d="M 873.996094 512.402344 L 894.339844 500.960938 L 898.410156 503.25 L 882.136719 512.402344 L 898.15625 521.554688 L 914.429688 512.402344 L 918.496094 514.691406 L 898.15625 526.132812 Z M 873.996094 512.402344 " fill-opacity="1" fill-rule="nonzero"/><path fill="#007acc" d="M 873.996094 512.402344 L 873.996094 517.234375 L 898.15625 530.96875 L 898.15625 526.132812 Z M 873.996094 512.402344 " fill-opacity="1" fill-rule="nonzero"/><path fill="#007acc" d="M 918.496094 514.691406 L 918.496094 500.449219 L 914.429688 498.160156 L 914.429688 512.402344 Z M 918.496094 514.691406 " fill-opacity="1" fill-rule="nonzero"/><g clip-path="url(#e1e9238eb5)"><path fill="#007acc" d="M 898.15625 526.132812 L 918.496094 514.691406 L 918.496094 500.449219 L 922.566406 498.160156 L 922.566406 517.234375 L 898.15625 530.96875 Z M 898.15625 526.132812 " fill-opacity="1" fill-rule="nonzero"/></g><g clip-path="url(#63f8c72af1)"><path fill="#007acc" d="M 922.566406 498.160156 L 918.496094 500.449219 L 914.429688 498.160156 L 918.496094 495.875 Z M 922.566406 498.160156 " fill-opacity="1" fill-rule="nonzero"/></g><g clip-path="url(#ce563b4afa)"><path fill="#007acc" d="M 918.496094 495.875 L 918.496094 491.042969 L 922.566406 488.753906 L 922.566406 493.585938 Z M 918.496094 495.875 " fill-opacity="1" fill-rule="nonzero"/></g><path fill="#007acc" d="M 918.496094 491.042969 L 918.496094 495.875 L 914.429688 493.585938 L 914.429688 488.753906 Z M 918.496094 491.042969 " fill-opacity="1" fill-rule="nonzero"/><g clip-path="url(#79295688ce)"><path fill="#007acc" d="M 922.566406 488.753906 L 918.496094 491.042969 L 914.429688 488.753906 L 918.496094 486.464844 Z M 922.566406 488.753906 " fill-opacity="1" fill-rule="nonzero"/></g></svg>