<svg xmlns="http://www.w3.org/2000/svg" xmlns:xlink="http://www.w3.org/1999/xlink" width="1920" zoomAndPan="magnify" viewBox="0 0 1440 809.999993" height="1080" preserveAspectRatio="xMidYMid meet" version="1.0"><defs><clipPath id="3d1e4d6c6e"><path d="M 851.382812 91 L 919.632812 91 L 919.632812 169.089844 L 851.382812 169.089844 Z M 851.382812 91 " clip-rule="nonzero"/></clipPath><clipPath id="31f264428c"><path d="M 857 73.089844 L 871 73.089844 L 871 87 L 857 87 Z M 857 73.089844 " clip-rule="nonzero"/></clipPath><clipPath id="9db969e777"><path d="M 872 73.089844 L 885 73.089844 L 885 87 L 872 87 Z M 872 73.089844 " clip-rule="nonzero"/></clipPath><clipPath id="a9d2db9459"><path d="M 886 73.089844 L 901 73.089844 L 901 87 L 886 87 Z M 886 73.089844 " clip-rule="nonzero"/></clipPath><clipPath id="187ed5398b"><path d="M 902 73.089844 L 914 73.089844 L 914 87 L 902 87 Z M 902 73.089844 " clip-rule="nonzero"/></clipPath><clipPath id="c94a0c19ed"><path d="M 381.6875 191 L 485.1875 191 L 485.1875 284 L 381.6875 284 Z M 381.6875 191 " clip-rule="nonzero"/></clipPath><clipPath id="e2e949f9bf"><path d="M 844.308594 647.136719 L 940 647.136719 L 940 743 L 844.308594 743 Z M 844.308594 647.136719 " clip-rule="nonzero"/></clipPath><clipPath id="9bbc37aed8"><path d="M 949.425781 189.421875 L 1045.425781 189.421875 L 1045.425781 285.421875 L 949.425781 285.421875 Z M 949.425781 189.421875 " clip-rule="nonzero"/></clipPath><clipPath id="38821941aa"><path d="M 398.339844 524.550781 L 485.339844 524.550781 L 485.339844 620.550781 L 398.339844 620.550781 Z M 398.339844 524.550781 " clip-rule="nonzero"/></clipPath><clipPath id="2af4e6a0a2"><path d="M 1013 357.019531 L 1106.554688 357.019531 L 1106.554688 453 L 1013 453 Z M 1013 357.019531 " clip-rule="nonzero"/></clipPath><clipPath id="ee6c9276f8"><path d="M 671.953125 695.183594 L 767.953125 695.183594 L 767.953125 791.183594 L 671.953125 791.183594 Z M 671.953125 695.183594 " clip-rule="nonzero"/></clipPath><clipPath id="327013e515"><path d="M 671.953125 727.433594 L 671.953125 759.03125 C 671.953125 776.84375 686.390625 791.28125 704.203125 791.28125 L 735.796875 791.28125 C 753.609375 791.28125 768.046875 776.84375 768.046875 759.03125 L 768.046875 727.433594 C 768.046875 709.621094 753.609375 695.183594 735.796875 695.183594 L 704.203125 695.183594 C 686.390625 695.183594 671.953125 709.621094 671.953125 727.433594 Z M 671.953125 727.433594 " clip-rule="nonzero"/></clipPath><clipPath id="e9d7dc9c49"><path d="M 699 714 L 748 714 L 748 773 L 699 773 Z M 699 714 " clip-rule="nonzero"/></clipPath><clipPath id="a1abd98a24"><path d="M 671.953125 727.433594 L 671.953125 759.03125 C 671.953125 776.84375 686.390625 791.28125 704.203125 791.28125 L 735.796875 791.28125 C 753.609375 791.28125 768.046875 776.84375 768.046875 759.03125 L 768.046875 727.433594 C 768.046875 709.621094 753.609375 695.183594 735.796875 695.183594 L 704.203125 695.183594 C 686.390625 695.183594 671.953125 709.621094 671.953125 727.433594 Z M 671.953125 727.433594 " clip-rule="nonzero"/></clipPath><clipPath id="0799a96003"><path d="M 333.71875 356.953125 L 429.71875 356.953125 L 429.71875 452.953125 L 333.71875 452.953125 Z M 333.71875 356.953125 " clip-rule="nonzero"/></clipPath><clipPath id="d499019222"><path d="M 333.71875 405 C 333.71875 417.742188 338.78125 429.964844 347.792969 438.976562 C 356.804688 447.988281 369.023438 453.046875 381.769531 453.046875 C 394.511719 453.046875 406.730469 447.988281 415.742188 438.976562 C 424.753906 429.964844 429.816406 417.742188 429.816406 405 C 429.816406 392.257812 424.753906 380.035156 415.742188 371.023438 C 406.730469 362.011719 394.511719 356.953125 381.769531 356.953125 C 369.023438 356.953125 356.804688 362.011719 347.792969 371.023438 C 338.78125 380.035156 333.71875 392.257812 333.71875 405 Z M 333.71875 405 " clip-rule="nonzero"/></clipPath><clipPath id="3e21b2f8ec"><path d="M 354 401 L 389 401 L 389 445 L 354 445 Z M 354 401 " clip-rule="nonzero"/></clipPath><clipPath id="b720255843"><path d="M 333.71875 405 C 333.71875 417.742188 338.78125 429.964844 347.792969 438.976562 C 356.804688 447.988281 369.023438 453.046875 381.769531 453.046875 C 394.511719 453.046875 406.730469 447.988281 415.742188 438.976562 C 424.753906 429.964844 429.816406 417.742188 429.816406 405 C 429.816406 392.257812 424.753906 380.035156 415.742188 371.023438 C 406.730469 362.011719 394.511719 356.953125 381.769531 356.953125 C 369.023438 356.953125 356.804688 362.011719 347.792969 371.023438 C 338.78125 380.035156 333.71875 392.257812 333.71875 405 Z M 333.71875 405 " clip-rule="nonzero"/></clipPath><clipPath id="5918aa8f9e"><path d="M 391 400 L 423 400 L 423 446 L 391 446 Z M 391 400 " clip-rule="nonzero"/></clipPath><clipPath id="cfa964b2d1"><path d="M 333.71875 405 C 333.71875 417.742188 338.78125 429.964844 347.792969 438.976562 C 356.804688 447.988281 369.023438 453.046875 381.769531 453.046875 C 394.511719 453.046875 406.730469 447.988281 415.742188 438.976562 C 424.753906 429.964844 429.816406 417.742188 429.816406 405 C 429.816406 392.257812 424.753906 380.035156 415.742188 371.023438 C 406.730469 362.011719 394.511719 356.953125 381.769531 356.953125 C 369.023438 356.953125 356.804688 362.011719 347.792969 371.023438 C 338.78125 380.035156 333.71875 392.257812 333.71875 405 Z M 333.71875 405 " clip-rule="nonzero"/></clipPath><clipPath id="dcf38103c9"><path d="M 574 98 L 588.949219 98 L 588.949219 145 L 574 145 Z M 574 98 " clip-rule="nonzero"/></clipPath><clipPath id="ab0a73bf17"><path d="M 546 138 L 586 138 L 586 169.089844 L 546 169.089844 Z M 546 138 " clip-rule="nonzero"/></clipPath><clipPath id="4aa751ec29"><path d="M 503 138 L 543 138 L 543 169.089844 L 503 169.089844 Z M 503 138 " clip-rule="nonzero"/></clipPath><clipPath id="bb8e43cd51"><path d="M 500.449219 98 L 515 98 L 515 145 L 500.449219 145 Z M 500.449219 98 " clip-rule="nonzero"/></clipPath><clipPath id="cdcd9be4b7"><path d="M 502 73.089844 L 543 73.089844 L 543 104 L 502 104 Z M 502 73.089844 " clip-rule="nonzero"/></clipPath><clipPath id="d5e3301780"><path d="M 546 73.089844 L 587 73.089844 L 587 104 L 546 104 Z M 546 73.089844 " clip-rule="nonzero"/></clipPath><clipPath id="7d6009840c"><path d="M 707 48 L 771 48 L 771 114.71875 L 707 114.71875 Z M 707 48 " clip-rule="nonzero"/></clipPath><clipPath id="552e17fd0d"><path d="M 500.449219 648 L 595.699219 648 L 595.699219 743.136719 L 500.449219 743.136719 Z M 500.449219 648 " clip-rule="nonzero"/></clipPath><clipPath id="3f09fca89e"><path d="M 949.425781 529 L 991 529 L 991 582 L 949.425781 582 Z M 949.425781 529 " clip-rule="nonzero"/></clipPath><clipPath id="a0b980645e"><path d="M 949.425781 525.234375 L 1034 525.234375 L 1034 553 L 949.425781 553 Z M 949.425781 525.234375 " clip-rule="nonzero"/></clipPath><clipPath id="6fefc6325b"><path d="M 984 589 L 1026 589 L 1026 621.234375 L 984 621.234375 Z M 984 589 " clip-rule="nonzero"/></clipPath><clipPath id="f17cb03f5e"><path d="M 1025 564 L 1067.925781 564 L 1067.925781 621.234375 L 1025 621.234375 Z M 1025 564 " clip-rule="nonzero"/></clipPath><clipPath id="327ca5c197"><path d="M 1053 561 L 1067.925781 561 L 1067.925781 569 L 1053 569 Z M 1053 561 " clip-rule="nonzero"/></clipPath><clipPath id="3f18115bd2"><path d="M 1060 548 L 1067.925781 548 L 1067.925781 562 L 1060 562 Z M 1060 548 " clip-rule="nonzero"/></clipPath><clipPath id="5bf24bc3c3"><path d="M 1053 544 L 1067.925781 544 L 1067.925781 553 L 1053 553 Z M 1053 544 " clip-rule="nonzero"/></clipPath></defs><g clip-path="url(#3d1e4d6c6e)"><path fill="#5e6572" d="M 919.5 91.976562 L 913.296875 161.453125 L 885.417969 169.179688 L 857.617188 161.464844 L 851.421875 91.976562 L 919.496094 91.972656 L 919.5 91.972656 Z M 919.5 91.976562 " fill-opacity="1" fill-rule="nonzero"/></g><path fill="#5e6572" d="M 885.460938 163.273438 L 907.988281 157.03125 L 913.289062 97.65625 L 885.460938 97.65625 Z M 885.460938 163.273438 " fill-opacity="1" fill-rule="nonzero"/><path fill="#ffffff" d="M 873.40625 114.703125 L 885.460938 114.703125 L 885.460938 106.179688 L 864.089844 106.179688 L 864.296875 108.464844 L 866.390625 131.953125 L 885.460938 131.953125 L 885.460938 123.429688 L 874.183594 123.429688 Z M 873.40625 114.703125 " fill-opacity="1" fill-rule="nonzero"/><path fill="#ffffff" d="M 875.328125 136.210938 L 866.769531 136.210938 L 867.964844 149.59375 L 885.421875 154.441406 L 885.460938 154.429688 L 885.460938 145.5625 L 885.425781 145.574219 L 875.933594 143.007812 Z M 875.328125 136.210938 " fill-opacity="1" fill-rule="nonzero"/><g clip-path="url(#31f264428c)"><path fill="#5e6572" d="M 857.757812 73.089844 L 862.089844 73.089844 L 862.089844 77.371094 L 866.050781 77.371094 L 866.050781 73.089844 L 870.382812 73.089844 L 870.382812 86.050781 L 866.050781 86.050781 L 866.050781 81.710938 L 862.089844 81.710938 L 862.089844 86.050781 L 857.757812 86.050781 Z M 857.757812 73.089844 " fill-opacity="1" fill-rule="nonzero"/></g><g clip-path="url(#9db969e777)"><path fill="#5e6572" d="M 876.078125 77.386719 L 872.265625 77.386719 L 872.265625 73.089844 L 884.222656 73.089844 L 884.222656 77.386719 L 880.40625 77.386719 L 880.40625 86.050781 L 876.078125 86.050781 Z M 876.078125 77.386719 " fill-opacity="1" fill-rule="nonzero"/></g><g clip-path="url(#a9d2db9459)"><path fill="#5e6572" d="M 886.121094 73.089844 L 890.636719 73.089844 L 893.414062 77.644531 L 896.1875 73.089844 L 900.707031 73.089844 L 900.707031 86.050781 L 896.394531 86.050781 L 896.394531 79.625 L 893.414062 84.234375 L 893.339844 84.234375 L 890.359375 79.625 L 890.359375 86.050781 L 886.121094 86.050781 Z M 886.121094 73.089844 " fill-opacity="1" fill-rule="nonzero"/></g><g clip-path="url(#187ed5398b)"><path fill="#5e6572" d="M 902.863281 73.089844 L 907.195312 73.089844 L 907.195312 81.765625 L 913.285156 81.765625 L 913.285156 86.050781 L 902.863281 86.050781 Z M 902.863281 73.089844 " fill-opacity="1" fill-rule="nonzero"/></g><path fill="#ffffff" d="M 885.433594 131.953125 L 895.929688 131.953125 L 894.9375 143.003906 L 885.433594 145.570312 L 885.433594 154.4375 L 902.902344 149.59375 L 903.03125 148.15625 L 905.035156 125.71875 L 905.242188 123.429688 L 885.433594 123.429688 Z M 885.433594 131.953125 " fill-opacity="1" fill-rule="nonzero"/><path fill="#ffffff" d="M 885.433594 114.679688 L 885.433594 114.703125 L 906.019531 114.703125 L 906.1875 112.785156 L 906.578125 108.464844 L 906.78125 106.179688 L 885.433594 106.179688 Z M 885.433594 114.679688 " fill-opacity="1" fill-rule="nonzero"/><g clip-path="url(#c94a0c19ed)"><path fill="#5e6572" d="M 466.988281 221.246094 C 465.914062 220.875 464.800781 220.527344 463.652344 220.195312 C 463.84375 219.425781 464.015625 218.667969 464.171875 217.917969 C 466.691406 205.664062 465.046875 195.789062 459.40625 192.535156 C 454 189.417969 445.160156 192.671875 436.230469 200.441406 C 435.371094 201.1875 434.507812 201.980469 433.652344 202.808594 C 433.078125 202.257812 432.503906 201.730469 431.933594 201.222656 C 422.578125 192.914062 413.195312 189.410156 407.566406 192.671875 C 402.164062 195.800781 400.5625 205.082031 402.835938 216.699219 C 403.058594 217.820312 403.3125 218.964844 403.601562 220.132812 C 402.277344 220.507812 400.996094 220.910156 399.769531 221.335938 C 388.796875 225.160156 381.792969 231.15625 381.792969 237.375 C 381.792969 243.792969 389.3125 250.238281 400.738281 254.144531 C 401.640625 254.453125 402.578125 254.742188 403.539062 255.019531 C 403.226562 256.277344 402.957031 257.511719 402.726562 258.71875 C 400.558594 270.132812 402.253906 279.195312 407.640625 282.300781 C 413.203125 285.511719 422.539062 282.210938 431.632812 274.265625 C 432.351562 273.636719 433.070312 272.972656 433.792969 272.273438 C 434.730469 273.171875 435.667969 274.027344 436.59375 274.828125 C 445.402344 282.40625 454.101562 285.464844 459.480469 282.351562 C 465.039062 279.136719 466.847656 269.398438 464.5 257.554688 C 464.320312 256.644531 464.109375 255.722656 463.878906 254.785156 C 464.535156 254.589844 465.179688 254.386719 465.804688 254.179688 C 477.6875 250.242188 485.414062 243.882812 485.414062 237.375 C 485.414062 231.132812 478.179688 225.097656 466.988281 221.246094 Z M 464.414062 249.980469 C 463.847656 250.164062 463.265625 250.347656 462.671875 250.523438 C 461.363281 246.371094 459.59375 241.957031 457.421875 237.394531 C 459.492188 232.941406 461.191406 228.585938 462.46875 224.460938 C 463.527344 224.765625 464.554688 225.089844 465.546875 225.429688 C 475.136719 228.734375 480.984375 233.613281 480.984375 237.375 C 480.984375 241.378906 474.671875 246.578125 464.414062 249.980469 Z M 460.15625 258.410156 C 461.195312 263.648438 461.339844 268.382812 460.652344 272.089844 C 460.039062 275.414062 458.796875 277.632812 457.261719 278.519531 C 453.996094 280.410156 447.011719 277.953125 439.484375 271.472656 C 438.617188 270.726562 437.746094 269.933594 436.878906 269.097656 C 439.796875 265.902344 442.714844 262.191406 445.5625 258.066406 C 450.570312 257.625 455.300781 256.898438 459.597656 255.90625 C 459.808594 256.757812 459.992188 257.59375 460.15625 258.410156 Z M 417.121094 278.191406 C 413.929688 279.320312 411.386719 279.355469 409.851562 278.46875 C 406.582031 276.582031 405.226562 269.304688 407.078125 259.542969 C 407.289062 258.425781 407.542969 257.277344 407.835938 256.105469 C 412.078125 257.042969 416.777344 257.71875 421.796875 258.125 C 424.667969 262.160156 427.671875 265.867188 430.695312 269.113281 C 430.035156 269.753906 429.375 270.359375 428.71875 270.929688 C 424.699219 274.449219 420.671875 276.941406 417.121094 278.191406 Z M 402.171875 249.957031 C 397.121094 248.226562 392.945312 245.984375 390.085938 243.53125 C 387.515625 241.332031 386.21875 239.148438 386.21875 237.375 C 386.21875 233.601562 391.84375 228.789062 401.226562 225.515625 C 402.367188 225.121094 403.558594 224.746094 404.792969 224.394531 C 406.089844 228.613281 407.792969 233.023438 409.84375 237.480469 C 407.765625 242.003906 406.039062 246.484375 404.730469 250.757812 C 403.847656 250.5 402.996094 250.234375 402.171875 249.957031 Z M 407.183594 215.847656 C 405.234375 205.894531 406.527344 198.386719 409.785156 196.503906 C 413.25 194.496094 420.914062 197.359375 428.992188 204.53125 C 429.511719 204.992188 430.03125 205.472656 430.550781 205.96875 C 427.539062 209.199219 424.566406 212.878906 421.722656 216.890625 C 416.847656 217.34375 412.183594 218.070312 407.894531 219.039062 C 407.625 217.957031 407.386719 216.890625 407.183594 215.847656 Z M 451.878906 226.886719 C 450.855469 225.113281 449.800781 223.386719 448.730469 221.703125 C 452.035156 222.121094 455.203125 222.675781 458.175781 223.355469 C 457.285156 226.214844 456.171875 229.210938 454.863281 232.277344 C 453.921875 230.492188 452.925781 228.695312 451.878906 226.886719 Z M 433.652344 209.132812 C 435.695312 211.34375 437.738281 213.8125 439.75 216.492188 C 437.722656 216.398438 435.671875 216.347656 433.601562 216.347656 C 431.554688 216.347656 429.519531 216.394531 427.503906 216.488281 C 429.515625 213.835938 431.578125 211.367188 433.652344 209.132812 Z M 415.308594 226.914062 C 414.285156 228.691406 413.308594 230.480469 412.382812 232.273438 C 411.09375 229.21875 409.992188 226.210938 409.089844 223.308594 C 412.046875 222.644531 415.199219 222.105469 418.484375 221.695312 C 417.394531 223.394531 416.335938 225.132812 415.308594 226.914062 Z M 418.578125 253.367188 C 415.183594 252.992188 411.984375 252.476562 409.027344 251.832031 C 409.945312 248.878906 411.070312 245.808594 412.386719 242.683594 C 413.316406 244.480469 414.292969 246.269531 415.324219 248.046875 C 416.375 249.863281 417.460938 251.636719 418.578125 253.367188 Z M 433.773438 265.925781 C 431.675781 263.664062 429.582031 261.160156 427.539062 258.46875 C 429.523438 258.542969 431.546875 258.585938 433.601562 258.585938 C 435.714844 258.585938 437.804688 258.535156 439.855469 258.449219 C 437.839844 261.1875 435.800781 263.699219 433.773438 265.925781 Z M 454.902344 242.527344 C 456.285156 245.683594 457.457031 248.738281 458.382812 251.644531 C 455.378906 252.328125 452.132812 252.878906 448.71875 253.289062 C 449.792969 251.585938 450.855469 249.824219 451.898438 248.015625 C 452.957031 246.1875 453.953125 244.351562 454.902344 242.527344 Z M 448.0625 245.804688 C 446.441406 248.617188 444.777344 251.296875 443.089844 253.824219 C 440.019531 254.042969 436.839844 254.15625 433.601562 254.15625 C 430.375 254.15625 427.238281 254.058594 424.21875 253.859375 C 422.464844 251.300781 420.765625 248.613281 419.15625 245.832031 C 417.550781 243.058594 416.074219 240.261719 414.734375 237.480469 C 416.074219 234.695312 417.546875 231.894531 419.144531 229.125 L 419.144531 229.128906 C 420.742188 226.351562 422.425781 223.675781 424.167969 221.128906 C 427.246094 220.894531 430.410156 220.773438 433.601562 220.773438 C 436.8125 220.773438 439.972656 220.894531 443.054688 221.132812 C 444.769531 223.660156 446.441406 226.328125 448.050781 229.101562 C 449.671875 231.910156 451.167969 234.691406 452.515625 237.417969 C 451.171875 240.191406 449.679688 243 448.0625 245.804688 Z M 457.191406 196.371094 C 460.667969 198.371094 462.015625 206.441406 459.832031 217.023438 C 459.695312 217.699219 459.535156 218.386719 459.367188 219.085938 C 455.066406 218.09375 450.402344 217.355469 445.515625 216.894531 C 442.664062 212.839844 439.714844 209.15625 436.753906 205.964844 C 437.550781 205.199219 438.347656 204.46875 439.136719 203.777344 C 446.785156 197.121094 453.9375 194.492188 457.191406 196.371094 Z M 433.601562 228.121094 C 438.710938 228.121094 442.855469 232.261719 442.855469 237.375 C 442.855469 242.480469 438.710938 246.625 433.601562 246.625 C 428.496094 246.625 424.351562 242.480469 424.351562 237.375 C 424.351562 232.261719 428.496094 228.121094 433.601562 228.121094 Z M 433.601562 228.121094 " fill-opacity="1" fill-rule="nonzero"/></g><g clip-path="url(#e2e949f9bf)"><path fill="#5e6572" d="M 937.800781 690.828125 L 896.417969 649.453125 C 894.039062 647.070312 890.175781 647.070312 887.789062 649.453125 L 879.199219 658.042969 L 890.097656 668.941406 C 892.628906 668.085938 895.53125 668.660156 897.546875 670.675781 C 898.027344 671.15625 898.433594 671.695312 898.761719 672.292969 C 899.089844 672.886719 899.332031 673.515625 899.484375 674.179688 C 899.636719 674.84375 899.695312 675.515625 899.65625 676.195312 C 899.621094 676.875 899.492188 677.535156 899.269531 678.179688 L 909.773438 688.683594 C 912.285156 687.804688 915.242188 688.375 917.273438 690.402344 C 917.726562 690.851562 918.113281 691.351562 918.429688 691.90625 C 918.75 692.457031 918.992188 693.039062 919.15625 693.65625 C 919.324219 694.273438 919.40625 694.898438 919.40625 695.535156 C 919.40625 696.175781 919.324219 696.800781 919.15625 697.417969 C 918.992188 698.035156 918.75 698.617188 918.433594 699.167969 C 918.113281 699.722656 917.726562 700.222656 917.277344 700.671875 C 916.824219 701.125 916.324219 701.507812 915.769531 701.828125 C 915.21875 702.144531 914.632812 702.386719 914.015625 702.550781 C 913.402344 702.714844 912.773438 702.796875 912.136719 702.796875 C 911.5 702.796875 910.875 702.714844 910.257812 702.550781 C 909.640625 702.386719 909.058594 702.144531 908.507812 701.824219 C 907.953125 701.507812 907.453125 701.121094 907.003906 700.671875 C 904.871094 698.535156 904.347656 695.402344 905.425781 692.773438 L 895.65625 683.003906 L 895.65625 708.78125 C 896.324219 709.125 897 709.578125 897.574219 710.15625 C 900.410156 712.992188 900.410156 717.585938 897.574219 720.425781 C 897.238281 720.765625 896.871094 721.066406 896.476562 721.332031 C 896.078125 721.597656 895.660156 721.820312 895.222656 722.003906 C 894.78125 722.183594 894.324219 722.324219 893.859375 722.414062 C 893.390625 722.507812 892.917969 722.554688 892.441406 722.554688 C 891.964844 722.554688 891.492188 722.507812 891.023438 722.414062 C 890.558594 722.324219 890.101562 722.183594 889.664062 722.003906 C 889.222656 721.820312 888.804688 721.597656 888.40625 721.332031 C 888.011719 721.066406 887.644531 720.765625 887.308594 720.425781 C 884.472656 717.585938 884.472656 712.992188 887.308594 710.15625 C 887.996094 709.46875 888.785156 708.941406 889.683594 708.570312 L 889.683594 682.558594 C 888.847656 682.199219 888.011719 681.675781 887.308594 680.992188 C 886.796875 680.484375 886.375 679.914062 886.035156 679.277344 C 885.695312 678.640625 885.457031 677.96875 885.316406 677.261719 C 885.175781 676.554688 885.144531 675.84375 885.21875 675.128906 C 885.289062 674.410156 885.464844 673.71875 885.742188 673.054688 L 875 662.308594 L 846.609375 690.632812 C 846.324219 690.917969 846.074219 691.226562 845.851562 691.558594 C 845.628906 691.894531 845.441406 692.246094 845.289062 692.613281 C 845.136719 692.984375 845.019531 693.367188 844.941406 693.757812 C 844.863281 694.152344 844.824219 694.550781 844.824219 694.949219 C 844.824219 695.351562 844.863281 695.746094 844.941406 696.140625 C 845.019531 696.53125 845.136719 696.914062 845.289062 697.285156 C 845.441406 697.65625 845.628906 698.007812 845.851562 698.339844 C 846.074219 698.671875 846.324219 698.980469 846.609375 699.265625 L 887.992188 740.640625 C 890.371094 743.023438 894.234375 743.023438 896.621094 740.640625 L 937.800781 699.460938 C 938.082031 699.175781 938.335938 698.867188 938.554688 698.535156 C 938.777344 698.199219 938.964844 697.847656 939.117188 697.480469 C 939.269531 697.109375 939.386719 696.726562 939.464844 696.332031 C 939.542969 695.941406 939.582031 695.542969 939.582031 695.144531 C 939.582031 694.742188 939.542969 694.347656 939.464844 693.953125 C 939.386719 693.5625 939.269531 693.179688 939.117188 692.808594 C 938.964844 692.4375 938.777344 692.085938 938.554688 691.753906 C 938.335938 691.421875 938.082031 691.113281 937.800781 690.828125 " fill-opacity="1" fill-rule="nonzero"/></g><g clip-path="url(#9bbc37aed8)"><path fill="#5e6572" d="M 1045.523438 237.46875 C 1045.523438 243.726562 1044.324219 249.707031 1042.144531 255.191406 C 1040.980469 258.125 1039.535156 260.917969 1037.839844 263.535156 C 1035.730469 266.796875 1033.234375 269.789062 1030.417969 272.441406 C 1028.769531 273.996094 1027.011719 275.433594 1025.15625 276.742188 C 1017.332031 282.269531 1007.785156 285.515625 997.472656 285.515625 C 987.164062 285.515625 977.617188 282.269531 969.792969 276.742188 C 967.46875 275.101562 965.300781 273.265625 963.308594 271.25 C 954.726562 262.570312 949.425781 250.636719 949.425781 237.46875 C 949.425781 224.296875 954.726562 212.363281 963.308594 203.6875 C 965.417969 201.550781 967.726562 199.617188 970.203125 197.90625 C 977.949219 192.554688 987.34375 189.421875 997.472656 189.421875 C 1007.605469 189.421875 1017 192.554688 1024.746094 197.90625 C 1026.636719 199.210938 1028.429688 200.648438 1030.109375 202.210938 C 1033.054688 204.929688 1035.65625 208.019531 1037.84375 211.402344 C 1039.535156 214.015625 1040.980469 216.808594 1042.144531 219.742188 C 1044.324219 225.226562 1045.523438 231.207031 1045.523438 237.46875 Z M 1045.523438 237.46875 " fill-opacity="1" fill-rule="nonzero"/></g><path fill="#f2f2f2" d="M 1022.820312 233.144531 C 1021.484375 229.265625 1016 229.265625 1014.929688 232.476562 C 1013.859375 235.6875 1017.472656 237.558594 1023.089844 239.429688 C 1028.707031 241.304688 1032.183594 246.25 1031.515625 250.664062 C 1030.84375 255.078125 1028.972656 260.828125 1017.875 260.828125 C 1010.9375 260.828125 1007.082031 256.492188 1005.164062 253.238281 L 1011.453125 249.460938 C 1011.453125 249.460938 1013.59375 254.007812 1017.605469 254.007812 C 1021.617188 254.007812 1023.222656 252.671875 1023.222656 249.59375 C 1023.222656 245.851562 1010.25 244.511719 1008.246094 238.09375 C 1006.238281 231.675781 1008.914062 222.582031 1018.273438 223.25 C 1024.125 223.667969 1027.414062 226.539062 1029.0625 228.636719 Z M 1022.820312 233.144531 " fill-opacity="1" fill-rule="nonzero"/><path fill="#f2f2f2" d="M 993.667969 223.917969 L 993.667969 249.59375 C 993.667969 252.671875 990.992188 254.277344 988.316406 253.742188 C 985.640625 253.207031 984.4375 249.996094 984.4375 249.996094 L 978.289062 254.140625 C 978.289062 254.140625 979.625 260.292969 988.050781 260.828125 C 996.476562 261.363281 1001.289062 256.28125 1001.289062 252.003906 L 1001.289062 223.917969 Z M 993.667969 223.917969 " fill-opacity="1" fill-rule="nonzero"/><path fill="#f2f2f2" d="M 963.308594 197.90625 L 963.308594 271.25 C 965.300781 273.265625 967.46875 275.101562 969.792969 276.742188 L 1025.15625 276.742188 C 1027.011719 275.433594 1028.769531 273.996094 1030.417969 272.441406 L 967.613281 272.441406 L 967.613281 202.210938 L 1037.839844 202.210938 L 1037.839844 263.535156 C 1039.535156 260.917969 1040.980469 258.125 1042.144531 255.191406 L 1042.144531 197.90625 Z M 963.308594 197.90625 " fill-opacity="1" fill-rule="nonzero"/><path fill="#5e6572" d="M 973.539062 253.070312 C 973.539062 257.28125 970.125 260.695312 965.917969 260.695312 C 961.707031 260.695312 958.292969 257.28125 958.292969 253.070312 C 958.292969 248.863281 961.707031 245.449219 965.917969 245.449219 C 970.125 245.449219 973.539062 248.863281 973.539062 253.070312 Z M 973.539062 253.070312 " fill-opacity="1" fill-rule="nonzero"/><g clip-path="url(#38821941aa)"><path fill="#5e6572" d="M 437.90625 525.828125 C 440.300781 524.472656 443.351562 524.464844 445.6875 525.828125 L 481.441406 545.984375 C 483.679688 547.242188 485.175781 549.734375 485.15625 552.3125 L 485.15625 592.726562 C 485.171875 595.410156 483.527344 597.957031 481.167969 599.191406 L 445.605469 619.253906 C 444.996094 619.589844 444.355469 619.839844 443.679688 620.003906 C 443.003906 620.171875 442.320312 620.242188 441.625 620.222656 C 440.929688 620.203125 440.25 620.09375 439.585938 619.890625 C 438.917969 619.691406 438.292969 619.40625 437.703125 619.035156 L 427.03125 612.871094 C 426.304688 612.4375 425.488281 612.089844 424.972656 611.386719 C 425.425781 610.777344 426.234375 610.699219 426.894531 610.429688 C 428.378906 609.957031 429.738281 609.234375 431.101562 608.464844 C 431.449219 608.226562 431.871094 608.316406 432.199219 608.53125 L 441.300781 613.796875 C 441.949219 614.167969 442.605469 613.675781 443.164062 613.359375 L 478.085938 593.652344 C 478.515625 593.445312 478.753906 592.988281 478.71875 592.515625 L 478.71875 552.492188 C 478.765625 551.953125 478.457031 551.460938 477.96875 551.246094 L 442.496094 531.269531 C 442.289062 531.125 442.054688 531.050781 441.800781 531.050781 C 441.546875 531.050781 441.316406 531.121094 441.105469 531.265625 L 405.679688 551.28125 C 405.203125 551.5 404.875 551.988281 404.933594 552.527344 L 404.933594 592.550781 C 404.890625 593.023438 405.144531 593.46875 405.578125 593.671875 L 415.042969 599.015625 C 416.820312 599.972656 419.003906 600.511719 420.960938 599.808594 C 421.390625 599.648438 421.785156 599.425781 422.144531 599.144531 C 422.503906 598.863281 422.816406 598.53125 423.074219 598.15625 C 423.335938 597.777344 423.53125 597.371094 423.667969 596.933594 C 423.800781 596.496094 423.871094 596.046875 423.867188 595.589844 L 423.875 555.804688 C 423.835938 555.214844 424.390625 554.730469 424.964844 554.789062 L 429.511719 554.789062 C 430.113281 554.773438 430.582031 555.410156 430.5 556 L 430.492188 596.035156 C 430.496094 599.59375 429.035156 603.460938 425.746094 605.207031 C 421.691406 607.300781 416.679688 606.863281 412.675781 604.847656 L 402.496094 599.21875 C 400.101562 598.023438 398.492188 595.433594 398.507812 592.753906 L 398.507812 552.339844 C 398.515625 551.683594 398.605469 551.039062 398.78125 550.40625 C 398.960938 549.773438 399.21875 549.175781 399.554688 548.613281 C 399.890625 548.050781 400.296875 547.539062 400.769531 547.085938 C 401.246094 546.628906 401.769531 546.246094 402.347656 545.929688 Z M 448.214844 553.84375 C 453.382812 553.542969 458.917969 553.644531 463.570312 556.191406 C 467.171875 558.144531 469.167969 562.238281 469.234375 566.246094 C 469.132812 566.785156 468.570312 567.082031 468.054688 567.042969 C 466.558594 567.042969 465.054688 567.066406 463.554688 567.035156 C 462.914062 567.058594 462.546875 566.472656 462.464844 565.910156 C 462.035156 563.992188 460.992188 562.097656 459.1875 561.175781 C 456.421875 559.789062 453.214844 559.855469 450.195312 559.886719 C 447.992188 560.007812 445.625 560.195312 443.761719 561.488281 C 442.324219 562.46875 441.890625 564.480469 442.402344 566.042969 C 442.882812 567.191406 444.207031 567.558594 445.289062 567.902344 C 451.523438 569.527344 458.125 569.398438 464.238281 571.515625 C 466.769531 572.386719 469.246094 574.089844 470.113281 576.738281 C 471.242188 580.289062 470.75 584.53125 468.226562 587.382812 C 466.179688 589.730469 463.195312 590.976562 460.21875 591.699219 C 456.257812 592.582031 452.152344 592.601562 448.128906 592.207031 C 444.351562 591.777344 440.417969 590.785156 437.496094 588.207031 C 435 586.042969 433.785156 582.664062 433.90625 579.40625 C 433.933594 578.855469 434.484375 578.472656 435.011719 578.519531 L 439.503906 578.519531 C 440.109375 578.476562 440.550781 578.996094 440.582031 579.566406 C 440.859375 581.363281 441.542969 583.308594 443.136719 584.355469 C 446.207031 586.339844 450.0625 586.199219 453.574219 586.257812 C 456.488281 586.128906 459.757812 586.089844 462.136719 584.160156 C 463.394531 583.0625 463.761719 581.226562 463.425781 579.648438 C 463.054688 578.3125 461.628906 577.691406 460.429688 577.253906 C 454.28125 575.304688 447.605469 576.011719 441.511719 573.808594 C 439.039062 572.9375 436.648438 571.285156 435.699219 568.742188 C 434.371094 565.148438 434.980469 560.699219 437.773438 557.945312 C 440.46875 555.203125 444.417969 554.148438 448.160156 553.769531 Z M 448.214844 553.84375 " fill-opacity="1" fill-rule="nonzero"/></g><g clip-path="url(#2af4e6a0a2)"><path fill="#5e6572" d="M 1059.667969 452.964844 C 1059.109375 452.96875 1058.5625 452.882812 1058.03125 452.707031 L 1026.960938 442.351562 C 1026.503906 442.199219 1026.074219 441.984375 1025.675781 441.714844 C 1025.277344 441.441406 1024.925781 441.117188 1024.617188 440.746094 C 1024.308594 440.375 1024.054688 439.96875 1023.859375 439.527344 C 1023.664062 439.085938 1023.535156 438.625 1023.46875 438.144531 L 1013.113281 363.058594 C 1013.0625 362.695312 1013.050781 362.324219 1013.078125 361.957031 C 1013.105469 361.585938 1013.171875 361.226562 1013.277344 360.871094 C 1013.382812 360.515625 1013.523438 360.175781 1013.703125 359.851562 C 1013.882812 359.527344 1014.09375 359.226562 1014.335938 358.945312 C 1014.578125 358.667969 1014.847656 358.417969 1015.144531 358.195312 C 1015.441406 357.972656 1015.757812 357.785156 1016.09375 357.632812 C 1016.433594 357.480469 1016.78125 357.363281 1017.144531 357.285156 C 1017.503906 357.207031 1017.871094 357.167969 1018.242188 357.167969 L 1101.09375 357.167969 C 1101.464844 357.167969 1101.832031 357.207031 1102.191406 357.285156 C 1102.554688 357.363281 1102.902344 357.480469 1103.238281 357.632812 C 1103.574219 357.785156 1103.890625 357.972656 1104.1875 358.195312 C 1104.484375 358.414062 1104.753906 358.664062 1104.996094 358.945312 C 1105.242188 359.222656 1105.453125 359.523438 1105.628906 359.847656 C 1105.808594 360.171875 1105.949219 360.511719 1106.054688 360.867188 C 1106.160156 361.21875 1106.230469 361.582031 1106.257812 361.949219 C 1106.285156 362.320312 1106.273438 362.6875 1106.222656 363.054688 L 1095.867188 438.136719 C 1095.800781 438.617188 1095.671875 439.078125 1095.476562 439.519531 C 1095.28125 439.964844 1095.03125 440.371094 1094.722656 440.742188 C 1094.414062 441.117188 1094.058594 441.4375 1093.660156 441.710938 C 1093.261719 441.984375 1092.832031 442.199219 1092.375 442.351562 L 1061.304688 452.707031 C 1060.773438 452.882812 1060.226562 452.96875 1059.667969 452.964844 Z M 1033.289062 433.546875 L 1059.667969 442.332031 L 1086.046875 433.527344 L 1095.152344 367.523438 L 1024.195312 367.523438 Z M 1033.289062 433.546875 " fill-opacity="1" fill-rule="nonzero"/></g><path fill="#5e6572" d="M 1059.667969 430.957031 C 1059.160156 430.957031 1058.664062 430.886719 1058.179688 430.742188 L 1045.234375 426.859375 C 1044.785156 426.722656 1044.359375 426.53125 1043.964844 426.28125 C 1043.566406 426.027344 1043.207031 425.730469 1042.894531 425.382812 C 1042.578125 425.035156 1042.3125 424.652344 1042.101562 424.234375 C 1041.890625 423.8125 1041.738281 423.375 1041.644531 422.914062 L 1041.128906 420.324219 C 1041.0625 420 1041.03125 419.675781 1041.027344 419.34375 C 1041.023438 419.015625 1041.054688 418.6875 1041.113281 418.363281 C 1041.175781 418.039062 1041.265625 417.726562 1041.386719 417.417969 C 1041.507812 417.109375 1041.65625 416.820312 1041.832031 416.539062 C 1042.007812 416.261719 1042.210938 416.003906 1042.433594 415.761719 C 1042.660156 415.523438 1042.90625 415.304688 1043.175781 415.113281 C 1043.441406 414.917969 1043.726562 414.753906 1044.023438 414.613281 C 1044.324219 414.476562 1044.632812 414.367188 1044.953125 414.289062 C 1045.273438 414.207031 1045.597656 414.160156 1045.925781 414.140625 C 1046.257812 414.125 1046.585938 414.136719 1046.910156 414.183594 C 1047.238281 414.226562 1047.558594 414.300781 1047.871094 414.40625 C 1048.183594 414.515625 1048.480469 414.648438 1048.769531 414.8125 C 1049.054688 414.976562 1049.324219 415.164062 1049.574219 415.378906 C 1049.824219 415.59375 1050.050781 415.828125 1050.257812 416.085938 C 1050.460938 416.34375 1050.640625 416.621094 1050.792969 416.910156 C 1050.945312 417.203125 1051.070312 417.507812 1051.164062 417.824219 L 1059.667969 420.375 L 1067.953125 417.886719 L 1069.234375 408.949219 L 1054.488281 408.949219 C 1053.964844 408.953125 1053.449219 408.875 1052.945312 408.71875 C 1052.441406 408.566406 1051.972656 408.335938 1051.539062 408.039062 C 1051.105469 407.742188 1050.726562 407.382812 1050.402344 406.96875 C 1050.074219 406.554688 1049.820312 406.101562 1049.632812 405.609375 C 1049.445312 405.117188 1049.335938 404.609375 1049.304688 404.082031 C 1049.273438 403.558594 1049.320312 403.039062 1049.449219 402.527344 C 1049.574219 402.015625 1049.773438 401.535156 1050.046875 401.085938 C 1050.320312 400.636719 1050.652344 400.238281 1051.050781 399.890625 L 1064.171875 388.238281 L 1041.542969 388.238281 C 1041.203125 388.238281 1040.867188 388.203125 1040.535156 388.136719 C 1040.199219 388.070312 1039.875 387.972656 1039.5625 387.84375 C 1039.25 387.714844 1038.949219 387.554688 1038.667969 387.363281 C 1038.382812 387.175781 1038.121094 386.960938 1037.882812 386.722656 C 1037.640625 386.480469 1037.425781 386.21875 1037.238281 385.9375 C 1037.050781 385.652344 1036.890625 385.355469 1036.761719 385.039062 C 1036.628906 384.726562 1036.53125 384.402344 1036.464844 384.070312 C 1036.398438 383.734375 1036.367188 383.398438 1036.367188 383.058594 C 1036.367188 382.71875 1036.398438 382.382812 1036.464844 382.050781 C 1036.53125 381.714844 1036.628906 381.390625 1036.761719 381.078125 C 1036.890625 380.761719 1037.050781 380.464844 1037.238281 380.183594 C 1037.425781 379.898438 1037.640625 379.636719 1037.882812 379.398438 C 1038.121094 379.15625 1038.382812 378.941406 1038.667969 378.753906 C 1038.949219 378.566406 1039.25 378.40625 1039.5625 378.273438 C 1039.875 378.144531 1040.199219 378.046875 1040.535156 377.980469 C 1040.867188 377.914062 1041.203125 377.882812 1041.542969 377.882812 L 1077.792969 377.882812 C 1078.320312 377.878906 1078.832031 377.957031 1079.335938 378.113281 C 1079.839844 378.265625 1080.308594 378.492188 1080.742188 378.792969 C 1081.175781 379.089844 1081.554688 379.445312 1081.882812 379.859375 C 1082.207031 380.277344 1082.460938 380.730469 1082.648438 381.222656 C 1082.835938 381.714844 1082.945312 382.222656 1082.976562 382.746094 C 1083.007812 383.273438 1082.960938 383.792969 1082.835938 384.304688 C 1082.707031 384.8125 1082.507812 385.296875 1082.234375 385.746094 C 1081.960938 386.195312 1081.628906 386.59375 1081.234375 386.941406 L 1068.109375 398.59375 L 1075.203125 398.59375 C 1075.574219 398.59375 1075.941406 398.632812 1076.304688 398.710938 C 1076.664062 398.792969 1077.015625 398.90625 1077.351562 399.0625 C 1077.691406 399.214844 1078.007812 399.402344 1078.304688 399.625 C 1078.601562 399.847656 1078.871094 400.097656 1079.117188 400.378906 C 1079.359375 400.660156 1079.570312 400.960938 1079.746094 401.289062 C 1079.925781 401.613281 1080.066406 401.953125 1080.171875 402.308594 C 1080.277344 402.667969 1080.339844 403.03125 1080.367188 403.398438 C 1080.394531 403.769531 1080.382812 404.136719 1080.328125 404.503906 L 1077.742188 422.628906 C 1077.671875 423.117188 1077.535156 423.589844 1077.328125 424.039062 C 1077.125 424.488281 1076.863281 424.902344 1076.539062 425.273438 C 1076.21875 425.648438 1075.847656 425.972656 1075.433594 426.242188 C 1075.019531 426.511719 1074.574219 426.714844 1074.101562 426.859375 L 1061.15625 430.742188 C 1060.671875 430.886719 1060.175781 430.957031 1059.667969 430.957031 Z M 1059.667969 430.957031 " fill-opacity="1" fill-rule="nonzero"/><g clip-path="url(#ee6c9276f8)"><g clip-path="url(#327013e515)"><path fill="#5e6572" d="M 671.953125 778.886719 C 671.953125 785.730469 677.5 791.277344 684.339844 791.277344 L 755.652344 791.277344 C 762.496094 791.277344 768.042969 785.730469 768.042969 778.886719 L 768.042969 707.574219 C 768.042969 700.730469 762.496094 695.183594 755.652344 695.183594 L 684.339844 695.183594 C 677.496094 695.183594 671.949219 700.730469 671.949219 707.574219 L 671.949219 778.886719 Z M 671.953125 778.886719 " fill-opacity="1" fill-rule="nonzero"/></g></g><g clip-path="url(#e9d7dc9c49)"><g clip-path="url(#a1abd98a24)"><path fill="#ffffff" d="M 711.800781 737.691406 L 711.800781 724.082031 L 723.777344 724.082031 C 724.917969 724.082031 726.019531 724.175781 727.078125 724.367188 C 728.136719 724.554688 729.074219 724.894531 729.890625 725.386719 C 730.703125 725.875 731.355469 726.554688 731.84375 727.421875 C 732.332031 728.292969 732.578125 729.40625 732.578125 730.761719 C 732.578125 733.207031 731.84375 734.972656 730.378906 736.0625 C 728.914062 737.144531 727.035156 737.691406 724.753906 737.691406 Z M 699.003906 714.140625 L 699.003906 772.320312 L 727.203125 772.320312 C 729.804688 772.320312 732.347656 771.996094 734.816406 771.339844 C 737.292969 770.691406 739.492188 769.6875 741.421875 768.328125 C 743.351562 766.96875 744.882812 765.21875 746.023438 763.074219 C 747.164062 760.925781 747.734375 758.386719 747.734375 755.453125 C 747.734375 751.816406 746.851562 748.703125 745.085938 746.125 C 743.320312 743.542969 740.648438 741.738281 737.058594 740.703125 C 739.667969 739.453125 741.636719 737.851562 742.96875 735.894531 C 744.300781 733.941406 744.964844 731.496094 744.964844 728.5625 C 744.964844 725.847656 744.515625 723.566406 743.621094 721.71875 C 742.722656 719.871094 741.460938 718.390625 739.832031 717.277344 C 738.199219 716.164062 736.242188 715.363281 733.964844 714.875 C 731.683594 714.382812 729.15625 714.140625 726.386719 714.140625 Z M 711.800781 762.382812 L 711.800781 746.410156 L 725.734375 746.410156 C 728.503906 746.410156 730.730469 747.046875 732.414062 748.324219 C 734.101562 749.601562 734.941406 751.734375 734.941406 754.71875 C 734.941406 756.242188 734.683594 757.492188 734.167969 758.46875 C 733.648438 759.445312 732.960938 760.21875 732.089844 760.789062 C 731.222656 761.359375 730.214844 761.769531 729.074219 762.015625 C 727.933594 762.257812 726.738281 762.382812 725.488281 762.382812 Z M 711.800781 762.382812 " fill-opacity="1" fill-rule="nonzero"/></g></g><g clip-path="url(#0799a96003)"><g clip-path="url(#d499019222)"><path fill="#5e6572" d="M 333.71875 453.046875 L 429.8125 453.046875 L 429.8125 356.953125 L 333.71875 356.953125 Z M 333.71875 453.046875 " fill-opacity="1" fill-rule="nonzero"/></g></g><g clip-path="url(#3e21b2f8ec)"><g clip-path="url(#b720255843)"><path fill="#ffffff" d="M 354.964844 405.3125 L 354.933594 409.25 L 367.441406 409.25 L 367.441406 444.789062 L 376.289062 444.789062 L 376.289062 409.25 L 388.796875 409.25 L 388.796875 405.390625 C 388.796875 403.257812 388.75 401.46875 388.691406 401.425781 C 388.644531 401.363281 381.03125 401.335938 371.804688 401.347656 L 355.007812 401.394531 Z M 354.964844 405.3125 " fill-opacity="1" fill-rule="nonzero"/></g></g><g clip-path="url(#5918aa8f9e)"><g clip-path="url(#cfa964b2d1)"><path fill="#ffffff" d="M 411.257812 401.285156 C 413.699219 401.894531 415.558594 402.980469 417.269531 404.746094 C 418.148438 405.691406 419.464844 407.414062 419.570312 407.828125 C 419.597656 407.953125 415.421875 410.757812 412.886719 412.328125 C 412.796875 412.390625 412.433594 411.992188 412.019531 411.382812 C 410.785156 409.582031 409.488281 408.804688 407.503906 408.667969 C 404.59375 408.46875 402.714844 409.996094 402.730469 412.542969 C 402.730469 413.289062 402.839844 413.734375 403.144531 414.339844 C 403.785156 415.667969 404.976562 416.460938 408.710938 418.078125 C 415.589844 421.039062 418.53125 422.988281 420.363281 425.765625 C 422.40625 428.863281 422.863281 433.804688 421.476562 437.480469 C 419.953125 441.476562 416.167969 444.191406 410.84375 445.089844 C 409.199219 445.378906 405.292969 445.335938 403.523438 445.015625 C 399.664062 444.328125 396.003906 442.421875 393.746094 439.921875 C 392.863281 438.945312 391.140625 436.398438 391.242188 436.214844 C 391.292969 436.152344 391.6875 435.910156 392.128906 435.652344 C 392.558594 435.40625 394.175781 434.476562 395.699219 433.589844 L 398.457031 431.992188 L 399.039062 432.84375 C 399.847656 434.078125 401.617188 435.769531 402.683594 436.335938 C 405.75 437.953125 409.960938 437.722656 412.035156 435.863281 C 412.921875 435.054688 413.285156 434.214844 413.285156 432.980469 C 413.285156 431.867188 413.148438 431.378906 412.570312 430.542969 C 411.820312 429.472656 410.296875 428.570312 405.964844 426.699219 C 401.007812 424.5625 398.871094 423.234375 396.917969 421.128906 C 395.789062 419.90625 394.722656 417.957031 394.28125 416.324219 C 393.914062 414.96875 393.824219 411.566406 394.113281 410.191406 C 395.136719 405.402344 398.75 402.0625 403.964844 401.070312 C 405.65625 400.753906 409.59375 400.871094 411.257812 401.285156 Z M 411.257812 401.285156 " fill-opacity="1" fill-rule="nonzero"/></g></g><path fill="#5e6572" d="M 505.976562 97.140625 L 505.980469 97.136719 L 505.976562 97.136719 Z M 505.976562 97.140625 " fill-opacity="1" fill-rule="nonzero"/><path fill="#5e6572" d="M 546.265625 148.125 L 570.605469 134.960938 L 570.605469 108.882812 L 546.265625 122.703125 Z M 546.265625 148.125 " fill-opacity="1" fill-rule="nonzero"/><g clip-path="url(#dcf38103c9)"><path fill="#5e6572" d="M 588.570312 98.675781 L 574.082031 106.902344 L 574.082031 136.507812 L 588.570312 144.746094 Z M 588.570312 98.675781 " fill-opacity="1" fill-rule="nonzero"/></g><path fill="#5e6572" d="M 568.972656 105.863281 L 544.535156 92.640625 L 520.101562 105.863281 L 544.535156 119.738281 Z M 568.972656 105.863281 " fill-opacity="1" fill-rule="nonzero"/><g clip-path="url(#ab0a73bf17)"><path fill="#5e6572" d="M 570.941406 138.675781 L 546.265625 152.023438 L 546.265625 169.183594 L 585.863281 147.15625 Z M 570.941406 138.675781 " fill-opacity="1" fill-rule="nonzero"/></g><g clip-path="url(#4aa751ec29)"><path fill="#5e6572" d="M 542.792969 152.023438 L 518.121094 138.675781 L 503.195312 147.15625 L 542.792969 169.183594 Z M 542.792969 152.023438 " fill-opacity="1" fill-rule="nonzero"/></g><g clip-path="url(#bb8e43cd51)"><path fill="#5e6572" d="M 500.484375 144.746094 L 514.976562 136.507812 L 514.976562 106.902344 L 500.484375 98.675781 Z M 500.484375 144.746094 " fill-opacity="1" fill-rule="nonzero"/></g><g clip-path="url(#cdcd9be4b7)"><path fill="#5e6572" d="M 516.578125 103.867188 L 542.789062 89.683594 L 542.789062 73.089844 L 502.183594 95.691406 Z M 516.578125 103.867188 " fill-opacity="1" fill-rule="nonzero"/></g><path fill="#5e6572" d="M 542.792969 122.703125 L 518.453125 108.882812 L 518.453125 134.960938 L 542.792969 148.125 Z M 542.792969 122.703125 " fill-opacity="1" fill-rule="nonzero"/><g clip-path="url(#d5e3301780)"><path fill="#5e6572" d="M 546.265625 89.683594 L 572.480469 103.871094 L 586.878906 95.691406 L 546.265625 73.089844 Z M 546.265625 89.683594 " fill-opacity="1" fill-rule="nonzero"/></g><path fill="#5e6572" d="M 705.292969 32.410156 C 709.019531 27.699219 716.035156 25.375 720.816406 25.253906 C 734.230469 25 739.824219 41.890625 740.253906 48.601562 L 746.460938 50.484375 C 745.03125 29.902344 732.371094 19.105469 720.253906 19.105469 C 708.894531 19.101562 698.402344 27.449219 694.175781 39.6875 C 688.402344 56.007812 692.191406 71.695312 699.269531 84.25 C 698.652344 85.066406 698.277344 86.503906 698.402344 87.882812 C 698.523438 91.652344 701.691406 94.789062 705.484375 94.789062 L 705.730469 94.789062 C 709.707031 94.664062 712.75 91.339844 712.5625 87.382812 C 712.5625 83.613281 709.332031 80.484375 705.542969 80.484375 L 705.292969 80.484375 C 705.042969 80.484375 704.675781 80.484375 704.359375 80.605469 C 699.207031 71.820312 697.03125 62.402344 697.84375 52.242188 C 698.335938 44.582031 700.824219 37.929688 705.292969 32.410156 Z M 705.292969 32.410156 " fill-opacity="1" fill-rule="nonzero"/><path fill="#5e6572" d="M 675.367188 103.644531 C 679.527344 109.921875 688.035156 113.933594 697.351562 113.933594 C 699.832031 113.933594 702.445312 113.75 704.988281 113.121094 C 721.136719 109.984375 733.371094 100.195312 740.390625 85.761719 L 740.449219 85.632812 C 744.050781 85.316406 746.84375 82.113281 746.660156 78.285156 C 746.46875 74.453125 743.367188 71.382812 739.582031 71.382812 L 739.328125 71.382812 C 735.421875 71.511719 732.375 74.835938 732.5 78.792969 C 732.621094 80.800781 733.433594 82.433594 734.546875 83.621094 C 730.203125 92.160156 723.683594 98.433594 713.804688 103.707031 C 707.160156 107.21875 700.144531 108.542969 693.3125 107.601562 C 687.601562 106.789062 683.132812 104.207031 680.398438 100.070312 C 676.304688 93.789062 675.929688 87.015625 679.339844 80.242188 C 681.832031 75.34375 685.554688 71.769531 688.042969 70.007812 C 687.417969 68.378906 686.671875 65.617188 686.300781 63.550781 C 667.910156 76.851562 669.777344 95.046875 675.367188 103.644531 Z M 675.367188 103.644531 " fill-opacity="1" fill-rule="nonzero"/><g clip-path="url(#7d6009840c)"><path fill="#5e6572" d="M 768.761719 100.878906 C 772.484375 93.347656 772.175781 80.671875 762.671875 69.8125 L 762.613281 69.9375 C 752.996094 58.511719 738.832031 52.238281 722.679688 52.238281 L 720.566406 52.238281 C 719.515625 49.917969 717.097656 48.46875 714.359375 48.46875 L 714.175781 48.46875 C 710.265625 48.46875 707.21875 51.867188 707.347656 55.816406 C 707.472656 59.578125 710.640625 62.71875 714.425781 62.71875 L 714.734375 62.71875 C 717.53125 62.597656 719.953125 60.835938 720.941406 58.328125 L 723.242188 58.328125 C 732.8125 58.328125 741.875 61.148438 750.140625 66.671875 C 756.46875 70.878906 761.007812 76.398438 763.550781 82.988281 C 765.78125 88.386719 765.660156 93.65625 763.363281 98.054688 C 759.824219 104.957031 753.859375 108.597656 745.976562 108.597656 C 741.007812 108.597656 736.167969 107.027344 733.679688 105.902344 C 732.191406 107.148438 729.703125 109.222656 727.902344 110.480469 C 733.363281 112.984375 738.894531 114.429688 744.230469 114.429688 C 756.34375 114.429688 765.34375 107.535156 768.761719 100.878906 Z M 768.761719 100.878906 " fill-opacity="1" fill-rule="nonzero"/></g><g clip-path="url(#552e17fd0d)"><path fill="#5e6572" d="M 568.660156 743.222656 C 568.347656 743.222656 568.035156 743.191406 567.730469 743.132812 C 567.425781 743.070312 567.125 742.980469 566.839844 742.863281 C 566.550781 742.742188 566.277344 742.59375 566.015625 742.421875 C 565.757812 742.25 565.515625 742.050781 565.296875 741.832031 C 565.074219 741.609375 564.878906 741.371094 564.703125 741.109375 C 564.53125 740.851562 564.382812 740.574219 564.265625 740.289062 C 564.144531 740 564.054688 739.703125 563.992188 739.394531 C 563.933594 739.089844 563.902344 738.78125 563.902344 738.46875 L 563.902344 726.101562 C 564.050781 724.660156 563.902344 723.253906 563.453125 721.878906 C 563.007812 720.503906 562.300781 719.277344 561.332031 718.203125 C 560.730469 717.550781 560.339844 716.785156 560.167969 715.910156 C 559.992188 715.039062 560.058594 714.183594 560.363281 713.347656 C 560.667969 712.511719 561.167969 711.816406 561.863281 711.261719 C 562.5625 710.703125 563.351562 710.371094 564.234375 710.261719 C 575.839844 708.878906 586.542969 705.171875 586.542969 685.050781 C 586.546875 683.171875 586.273438 681.332031 585.730469 679.535156 C 585.1875 677.734375 584.398438 676.054688 583.355469 674.492188 C 582.394531 673.050781 581.746094 671.480469 581.410156 669.785156 C 581.070312 668.085938 581.070312 666.390625 581.40625 664.691406 C 581.839844 662.457031 581.839844 660.21875 581.40625 657.984375 C 577.824219 659.195312 574.507812 660.925781 571.464844 663.167969 C 570.886719 663.582031 570.246094 663.847656 569.546875 663.972656 C 568.847656 664.097656 568.15625 664.070312 567.46875 663.882812 C 563.175781 662.671875 558.800781 662.0625 554.339844 662.0625 C 549.882812 662.0625 545.503906 662.671875 541.210938 663.882812 C 540.527344 664.070312 539.835938 664.097656 539.136719 663.972656 C 538.4375 663.847656 537.796875 663.582031 537.21875 663.167969 C 534.152344 660.898438 530.808594 659.167969 527.179688 657.984375 C 526.722656 660.21875 526.722656 662.457031 527.179688 664.691406 C 527.492188 666.410156 527.472656 668.125 527.117188 669.835938 C 526.765625 671.546875 526.101562 673.128906 525.136719 674.585938 C 524.097656 676.160156 523.308594 677.851562 522.765625 679.65625 C 522.226562 681.460938 521.953125 683.308594 521.949219 685.191406 C 521.949219 703.695312 530.890625 708.644531 544.304688 710.355469 C 544.742188 710.410156 545.167969 710.523438 545.574219 710.695312 C 545.980469 710.867188 546.355469 711.09375 546.703125 711.371094 C 547.046875 711.648438 547.347656 711.964844 547.601562 712.328125 C 547.855469 712.6875 548.058594 713.078125 548.203125 713.496094 C 548.488281 714.320312 548.539062 715.15625 548.359375 716.011719 C 548.179688 716.863281 547.796875 717.609375 547.207031 718.25 C 546.269531 719.25 545.574219 720.394531 545.121094 721.6875 C 544.664062 722.980469 544.488281 724.304688 544.589844 725.671875 L 544.589844 738.46875 C 544.589844 738.78125 544.558594 739.089844 544.5 739.394531 C 544.4375 739.703125 544.347656 740 544.226562 740.289062 C 544.109375 740.574219 543.960938 740.851562 543.789062 741.109375 C 543.613281 741.371094 543.417969 741.609375 543.195312 741.832031 C 542.976562 742.050781 542.734375 742.25 542.476562 742.421875 C 542.214844 742.59375 541.941406 742.742188 541.652344 742.863281 C 541.363281 742.980469 541.066406 743.070312 540.761719 743.132812 C 540.453125 743.191406 540.144531 743.222656 539.832031 743.222656 C 539.519531 743.222656 539.210938 743.191406 538.90625 743.132812 C 538.597656 743.070312 538.300781 742.980469 538.011719 742.863281 C 537.722656 742.742188 537.449219 742.59375 537.191406 742.421875 C 536.929688 742.25 536.691406 742.050781 536.46875 741.832031 C 536.25 741.609375 536.050781 741.371094 535.878906 741.109375 C 535.703125 740.851562 535.558594 740.574219 535.4375 740.289062 C 535.320312 740 535.230469 739.703125 535.167969 739.394531 C 535.105469 739.089844 535.078125 738.78125 535.078125 738.46875 L 535.078125 735.757812 C 532.738281 736.023438 530.40625 736.003906 528.074219 735.695312 C 525.742188 735.386719 523.480469 734.800781 521.292969 733.933594 C 519.109375 733.066406 517.058594 731.945312 515.148438 730.570312 C 513.242188 729.199219 511.527344 727.613281 510.007812 725.816406 C 508.433594 724.070312 506.597656 722.675781 504.492188 721.628906 C 504.1875 721.550781 503.894531 721.445312 503.613281 721.308594 C 503.332031 721.171875 503.066406 721.011719 502.816406 720.824219 C 502.566406 720.632812 502.335938 720.425781 502.128906 720.191406 C 501.917969 719.957031 501.734375 719.707031 501.574219 719.4375 C 501.417969 719.167969 501.285156 718.886719 501.183594 718.589844 C 501.078125 718.292969 501.003906 717.992188 500.960938 717.683594 C 500.917969 717.371094 500.90625 717.0625 500.921875 716.75 C 500.9375 716.4375 500.988281 716.128906 501.066406 715.824219 C 501.144531 715.523438 501.25 715.230469 501.386719 714.949219 C 501.523438 714.664062 501.683594 714.398438 501.871094 714.148438 C 502.058594 713.898438 502.269531 713.671875 502.503906 713.460938 C 502.738281 713.253906 502.988281 713.070312 503.257812 712.910156 C 503.527344 712.75 503.808594 712.621094 504.105469 712.515625 C 504.402344 712.414062 504.703125 712.339844 505.011719 712.296875 C 505.324219 712.253906 505.632812 712.238281 505.945312 712.257812 C 506.257812 712.273438 506.566406 712.324219 506.871094 712.402344 C 510.585938 713.753906 513.757812 715.910156 516.382812 718.871094 C 521.140625 723.625 525.894531 727.8125 534.933594 726.101562 C 534.773438 723.519531 535.136719 721.011719 536.027344 718.585938 C 526.230469 716.109375 512.246094 709.070312 512.246094 685.289062 C 512.238281 682.472656 512.640625 679.714844 513.449219 677.015625 C 514.261719 674.316406 515.445312 671.796875 517 669.449219 C 517.601562 668.546875 517.808594 667.566406 517.621094 666.5 C 517.140625 663.933594 517.03125 661.347656 517.300781 658.75 C 517.566406 656.152344 518.195312 653.644531 519.191406 651.230469 C 519.460938 650.578125 519.863281 650.015625 520.386719 649.539062 C 520.910156 649.066406 521.511719 648.726562 522.1875 648.519531 C 523.804688 648.042969 529.605469 647.09375 540.59375 654.226562 C 545.042969 653.15625 549.550781 652.621094 554.128906 652.621094 C 558.703125 652.621094 563.210938 653.15625 567.660156 654.226562 C 578.648438 647.09375 584.449219 647.996094 586.019531 648.519531 C 586.695312 648.726562 587.296875 649.066406 587.820312 649.539062 C 588.34375 650.015625 588.742188 650.578125 589.015625 651.230469 C 590.011719 653.652344 590.644531 656.167969 590.910156 658.773438 C 591.175781 661.382812 591.070312 663.972656 590.585938 666.546875 C 590.382812 667.523438 590.554688 668.425781 591.109375 669.257812 C 592.671875 671.613281 593.855469 674.140625 594.667969 676.847656 C 595.476562 679.554688 595.878906 682.320312 595.867188 685.144531 C 595.867188 709.261719 581.976562 716.253906 572.082031 718.441406 C 572.964844 721.019531 573.3125 723.667969 573.128906 726.386719 L 573.128906 738.46875 C 573.128906 738.769531 573.101562 739.066406 573.046875 739.359375 C 572.992188 739.65625 572.90625 739.945312 572.796875 740.222656 C 572.6875 740.503906 572.550781 740.769531 572.390625 741.023438 C 572.226562 741.277344 572.046875 741.515625 571.839844 741.734375 C 571.632812 741.953125 571.410156 742.152344 571.164062 742.328125 C 570.921875 742.503906 570.664062 742.65625 570.390625 742.78125 C 570.117188 742.910156 569.835938 743.011719 569.546875 743.085938 C 569.253906 743.160156 568.957031 743.207031 568.660156 743.222656 Z M 568.660156 743.222656 " fill-opacity="1" fill-rule="nonzero"/></g><path fill="#5e6572" d="M 956.464844 541.386719 L 956.464844 581.996094 L 963.453125 578.066406 L 963.453125 545.316406 Z M 956.464844 541.386719 " fill-opacity="1" fill-rule="nonzero"/><g clip-path="url(#3f09fca89e)"><path fill="#5e6572" d="M 949.476562 578.066406 L 949.476562 529.15625 L 990.964844 552.738281 L 990.964844 561.035156 L 956.464844 541.386719 L 956.464844 581.996094 Z M 949.476562 578.066406 " fill-opacity="1" fill-rule="nonzero"/></g><path fill="#5e6572" d="M 1033.324219 529.15625 L 1033.324219 578.066406 L 1005.378906 593.789062 L 998.390625 589.421875 L 1026.335938 573.703125 L 1026.335938 540.949219 L 990.964844 561.035156 L 990.964844 552.738281 Z M 1033.324219 529.15625 " fill-opacity="1" fill-rule="nonzero"/><g clip-path="url(#a0b980645e)"><path fill="#5e6572" d="M 1026.335938 525.226562 L 991.402344 544.878906 L 956.464844 525.226562 L 949.476562 529.15625 L 990.964844 552.738281 L 1033.324219 529.15625 Z M 1026.335938 525.226562 " fill-opacity="1" fill-rule="nonzero"/></g><path fill="#5e6572" d="M 1019.347656 544.878906 L 1019.347656 569.769531 L 1026.335938 573.703125 L 1026.335938 540.949219 Z M 1019.347656 544.878906 " fill-opacity="1" fill-rule="nonzero"/><path fill="#5e6572" d="M 984.414062 589.421875 L 1019.347656 569.769531 L 1026.335938 573.703125 L 998.390625 589.421875 L 1025.902344 605.140625 L 1053.851562 589.421875 L 1060.835938 593.351562 L 1025.902344 613.003906 Z M 984.414062 589.421875 " fill-opacity="1" fill-rule="nonzero"/><g clip-path="url(#6fefc6325b)"><path fill="#5e6572" d="M 984.414062 589.421875 L 984.414062 597.71875 L 1025.902344 621.304688 L 1025.902344 613.003906 Z M 984.414062 589.421875 " fill-opacity="1" fill-rule="nonzero"/></g><path fill="#5e6572" d="M 1060.835938 593.351562 L 1060.835938 568.898438 L 1053.851562 564.96875 L 1053.851562 589.421875 Z M 1060.835938 593.351562 " fill-opacity="1" fill-rule="nonzero"/><g clip-path="url(#f17cb03f5e)"><path fill="#5e6572" d="M 1025.902344 613.003906 L 1060.835938 593.351562 L 1060.835938 568.898438 L 1067.824219 564.96875 L 1067.824219 597.71875 L 1025.902344 621.304688 Z M 1025.902344 613.003906 " fill-opacity="1" fill-rule="nonzero"/></g><g clip-path="url(#327ca5c197)"><path fill="#5e6572" d="M 1067.824219 564.96875 L 1060.835938 568.898438 L 1053.851562 564.96875 L 1060.835938 561.035156 Z M 1067.824219 564.96875 " fill-opacity="1" fill-rule="nonzero"/></g><g clip-path="url(#3f18115bd2)"><path fill="#5e6572" d="M 1060.835938 561.035156 L 1060.835938 552.738281 L 1067.824219 548.808594 L 1067.824219 557.105469 Z M 1060.835938 561.035156 " fill-opacity="1" fill-rule="nonzero"/></g><path fill="#5e6572" d="M 1060.835938 552.738281 L 1060.835938 561.035156 L 1053.851562 557.105469 L 1053.851562 548.808594 Z M 1060.835938 552.738281 " fill-opacity="1" fill-rule="nonzero"/><g clip-path="url(#5bf24bc3c3)"><path fill="#5e6572" d="M 1067.824219 548.808594 L 1060.835938 552.738281 L 1053.851562 548.808594 L 1060.835938 544.878906 Z M 1067.824219 548.808594 " fill-opacity="1" fill-rule="nonzero"/></g></svg>